<svg width="16" height="10" viewBox="0 0 16 10" fill="none" xmlns="http://www.w3.org/2000/svg">
<path d="M7.37568 9.44469L0.255608 2.32449C0.0907959 2.15981 -7.16833e-08 1.93997 -6.14371e-08 1.70557C-5.1191e-08 1.47116 0.090796 1.25133 0.255608 1.08664L0.779831 0.562291C1.12142 0.22109 1.6766 0.22109 2.01767 0.562291L7.99668 6.5413L13.9823 0.555657C14.1471 0.390976 14.3668 0.300049 14.6011 0.300049C14.8357 0.300049 15.0554 0.390976 15.2203 0.555657L15.7444 1.08001C15.9092 1.24482 16 1.46453 16 1.69893C16 1.93334 15.9092 2.15317 15.7444 2.31785L8.61782 9.44469C8.45248 9.60976 8.23174 9.70043 7.99707 9.69991C7.7615 9.70043 7.54088 9.60976 7.37568 9.44469Z" fill="#333333"/>
</svg>
