<svg width="331" height="266" viewBox="0 0 331 266" fill="none" xmlns="http://www.w3.org/2000/svg">
<path d="M83.0475 192.615C84.0866 192.965 67.8691 206.212 57.4589 226.412C57.1229 227.069 56.5937 227.607 55.9427 227.954C55.2917 228.302 54.5499 228.441 53.8172 228.354C48.9617 227.791 37.7551 226.538 25.0433 225.577C17.9348 225.043 1.12498 223.421 1.12498 223.421C1.12498 223.421 -4.28408 219.196 10.836 217.361C35.4536 214.35 41.6881 207.426 41.6881 207.426C51.8653 194.927 61.1102 178.291 61.1102 178.291C61.1102 178.291 82.2318 192.343 83.0475 192.615Z" fill="#FF9A75"/>
<path d="M113.22 184.836C107.257 201.725 106.5 206.853 104.48 221.556C104.405 222.105 104.176 222.622 103.818 223.045C103.46 223.468 102.989 223.78 102.46 223.945C94.8119 226.463 87.3013 229.38 79.9594 232.686C76.075 234.385 66.0629 237.862 59.8381 239.969C59.3886 240.119 58.9029 240.121 58.4525 239.974C58.002 239.827 57.6106 239.539 57.3356 239.154C57.0606 238.768 56.9167 238.304 56.9249 237.83C56.9331 237.356 57.093 236.898 57.3812 236.522C59.2115 234.198 61.3292 232.116 63.6837 230.326C83.1058 215.127 83.1058 210.601 83.1058 210.601C85.048 202.55 89.5928 182.136 90.8746 177.582C90.8552 177.572 113.443 184.127 113.22 184.836Z" fill="#EF7959"/>
<path d="M175.507 99.8396L160.687 87.0979C158.282 85.3267 155.306 84.5102 152.334 84.8062C149.362 85.1021 146.605 86.4896 144.596 88.7003L69.8211 172.522C69.59 172.671 69.389 172.862 69.2287 173.085C69.1512 173.187 69.086 173.298 69.0345 173.415L68.7432 173.726L68.8694 173.823C67.7138 177.708 74.9194 186.701 85.8249 194.684C96.3032 202.346 106.626 206.474 110.413 204.755L110.51 204.823L110.617 204.648C110.936 204.481 111.215 204.245 111.433 203.958C111.716 203.556 111.878 203.081 111.899 202.589L175.507 99.8396Z" fill="#331338"/>
<path d="M136.75 88.205C134.387 86.4434 131.449 85.6316 128.517 85.9301C125.585 86.2286 122.871 87.6155 120.911 89.8172C120.911 89.8172 44.718 175.163 44.5724 175.367C42.0864 178.766 49.5153 188.43 61.1686 196.956C72.8219 205.483 84.2906 209.64 86.7767 206.231C86.932 206.027 100.693 195.199 102.314 180.272L104.257 172.969C106.655 166.705 111.132 166.442 115.56 161.392L127.039 148.272C130.69 143.027 135.584 136.55 135.584 127.178C135.584 117.389 146.267 114.728 149.889 105.599L152.19 99.7231L136.75 88.205Z" fill="#A19623"/>
<path d="M121.911 265.026H115.793L112.608 241.407L126.097 241.174L121.911 265.026Z" fill="#331338"/>
<path d="M226.072 265.026H232.19L235.365 241.407L221.886 241.174L226.072 265.026Z" fill="#331338"/>
<path d="M183.868 265.026H177.75L174.574 241.407L188.053 241.174L183.868 265.026Z" fill="#331338"/>
<path d="M291.962 265.026H297.594L301.653 241.416L287.776 241.174L291.962 265.026Z" fill="#331338"/>
<path d="M310.869 55.1854L302.129 111.348C300.518 120.503 295.729 128.796 288.607 134.768C281.484 140.741 272.483 144.009 263.188 143.999H248.475C244.758 143.994 241.176 145.391 238.444 147.912C235.712 150.432 234.03 153.889 233.734 157.595L231.209 189.877L126.66 189.789L115.007 143.668L149.86 143.795C159.182 143.841 168.219 140.588 175.373 134.61C182.527 128.633 187.335 120.317 188.947 111.134L194.919 78.3477C196.071 71.7907 199.498 65.8499 204.598 61.5707C209.697 57.2914 216.142 54.9479 222.799 54.9523L308.364 55.03C309.201 55.0366 310.037 55.0884 310.869 55.1854Z" fill="#F2AE72"/>
<path d="M141.256 142.454C141.256 142.454 153.326 155.983 159.784 197.054L197.143 202.278L207.029 184.7L149.374 140.201L141.256 142.454Z" fill="#331338"/>
<path d="M259.721 33.8197C259.167 33.8197 253.846 34.7908 253.263 38.219C252.68 41.6473 256.681 46.0855 265.781 46.7556C274.88 47.4257 266.451 34.3635 266.451 34.3635L259.721 33.8197Z" fill="#702831"/>
<path d="M257.72 169.628C257.72 169.628 246.32 171.123 225.829 186.419C215.487 194.14 204.387 189.43 195.375 178.97L144.159 119.477L169.67 94.7604L257.72 169.628Z" fill="#331338"/>
<path d="M241.629 166.637L231.248 178.524C228.079 182.143 224.198 185.069 219.846 187.12C215.495 189.17 210.767 190.3 205.959 190.44C201.151 190.579 196.366 189.725 191.903 187.93C187.44 186.135 183.395 183.439 180.022 180.01L125.096 123.973L148.529 97.0815L241.629 166.637Z" fill="#A19623"/>
<path d="M211.923 115.301L211.525 116.505L192.918 99.4609L181.498 59.4973L127.495 59.7693C126.233 59.7693 124.786 61.0123 125.135 63.4403L133.623 101.413C133.797 102.199 134.176 102.926 134.72 103.52L152.53 122.944C153.602 123.812 154.974 124.221 156.347 124.08L210.117 118.515C211.039 118.437 211.904 117.845 211.923 117.049V115.301Z" fill="#331338"/>
<path d="M193.074 97.6933L135.565 101.248L126.31 62.1195C126.215 61.8405 126.189 61.5424 126.236 61.2512C126.282 60.96 126.399 60.6846 126.576 60.449C126.753 60.2133 126.985 60.0246 127.252 59.8994C127.519 59.7741 127.812 59.7161 128.107 59.7304L181.518 59.5459C182.246 59.5879 182.943 59.8581 183.51 60.3183C184.076 60.7785 184.484 61.4052 184.674 62.1098L193.074 97.6933Z" fill="#5361A3"/>
<path d="M189.112 96.2074L185.888 96.4017L154.531 98.2566L139.41 99.1598C138.896 99.1595 138.391 99.0158 137.954 98.7448C137.517 98.4737 137.163 98.0861 136.934 97.6253L136.866 97.4991C136.817 97.3795 136.778 97.2561 136.75 97.1301V97.0718L134.623 88.0691L133.496 83.3006V83.1841L128.825 63.4597C128.749 63.2221 128.732 62.9695 128.775 62.7237C128.819 62.478 128.921 62.2465 129.075 62.0495C129.228 61.8524 129.426 61.6956 129.654 61.5927C129.881 61.4898 130.13 61.444 130.379 61.4591H147.665L180.75 61.3814C181.335 61.4099 181.896 61.6211 182.354 61.9853C182.812 62.3494 183.145 62.8481 183.304 63.4111L190.588 94.168V94.2554C190.652 94.4836 190.663 94.7236 190.619 94.9566C190.575 95.1897 190.478 95.4094 190.335 95.5985C190.192 95.7877 190.007 95.9411 189.795 96.0467C189.583 96.1524 189.349 96.2074 189.112 96.2074Z" fill="#E5EBFF"/>
<path d="M210.855 116.689L156.793 121.798C156.027 121.877 155.252 121.784 154.526 121.525C153.801 121.266 153.142 120.849 152.598 120.302L135.584 101.248L193.074 97.6934L211.574 114.932C211.722 115.073 211.824 115.256 211.867 115.457C211.91 115.657 211.892 115.866 211.814 116.056C211.736 116.245 211.603 116.407 211.432 116.521C211.261 116.634 211.06 116.692 210.855 116.689Z" fill="#5361A3"/>
<path d="M149.675 113.669L138.488 101.869L192.19 98.6257L203.339 108.765L149.675 113.669Z" fill="#8D9FED"/>
<path d="M159.26 118.981C159.193 118.981 159.126 118.967 159.065 118.94C159.003 118.913 158.947 118.874 158.901 118.826L140.226 98.7034C140.181 98.659 140.145 98.6062 140.121 98.5478C140.096 98.4894 140.083 98.4268 140.083 98.3635C140.083 98.3001 140.096 98.2375 140.121 98.1791C140.145 98.1207 140.181 98.0678 140.226 98.0235C140.271 97.978 140.325 97.9419 140.384 97.9172C140.443 97.8926 140.507 97.8799 140.571 97.8799C140.635 97.8799 140.699 97.8926 140.758 97.9172C140.817 97.9419 140.871 97.978 140.916 98.0235L159.6 118.146C159.689 118.237 159.739 118.359 159.739 118.486C159.739 118.613 159.689 118.735 159.6 118.826C159.511 118.92 159.389 118.976 159.26 118.981Z" fill="#331338"/>
<path d="M164.562 117.797C164.496 117.798 164.43 117.785 164.37 117.758C164.31 117.731 164.256 117.691 164.213 117.641L145.49 97.5282C145.441 97.4827 145.402 97.4277 145.376 97.3666C145.349 97.3056 145.336 97.2397 145.336 97.1731C145.336 97.1065 145.35 97.0407 145.376 96.9797C145.403 96.9186 145.442 96.8637 145.491 96.8183C145.539 96.773 145.597 96.7381 145.66 96.7159C145.722 96.6937 145.789 96.6846 145.855 96.6893C145.922 96.6939 145.986 96.7121 146.046 96.7429C146.105 96.7736 146.157 96.8161 146.199 96.8678L164.912 116.981C164.957 117.026 164.994 117.08 165.018 117.139C165.043 117.198 165.056 117.261 165.056 117.325C165.056 117.39 165.043 117.453 165.018 117.512C164.994 117.571 164.957 117.625 164.912 117.67C164.865 117.714 164.81 117.748 164.75 117.77C164.69 117.791 164.626 117.801 164.562 117.797Z" fill="#331338"/>
<path d="M169.864 116.854C169.798 116.856 169.733 116.843 169.672 116.816C169.612 116.789 169.558 116.749 169.515 116.699L150.831 96.5862C150.782 96.5407 150.743 96.4857 150.717 96.4246C150.691 96.3635 150.677 96.2977 150.677 96.2311C150.677 96.1645 150.691 96.0987 150.717 96.0376C150.744 95.9766 150.783 95.9217 150.832 95.8763C150.88 95.831 150.938 95.7961 151.001 95.7739C151.063 95.7517 151.13 95.7426 151.196 95.7472C151.263 95.7519 151.328 95.7701 151.387 95.8009C151.446 95.8316 151.498 95.8741 151.54 95.9258L170.224 116.039C170.269 116.084 170.305 116.138 170.33 116.197C170.355 116.256 170.367 116.319 170.367 116.383C170.367 116.448 170.355 116.511 170.33 116.57C170.305 116.629 170.269 116.683 170.224 116.728C170.176 116.773 170.12 116.808 170.058 116.83C169.996 116.851 169.93 116.86 169.864 116.854Z" fill="#331338"/>
<path d="M175.157 116.816C175.091 116.817 175.025 116.804 174.965 116.777C174.904 116.75 174.851 116.71 174.807 116.66L156.172 96.5474C156.126 96.5022 156.09 96.4485 156.066 96.3894C156.041 96.3302 156.028 96.2667 156.028 96.2026C156.028 96.1385 156.041 96.075 156.066 96.0159C156.09 95.9567 156.126 95.903 156.172 95.8579C156.217 95.8123 156.271 95.7762 156.33 95.7516C156.389 95.7269 156.453 95.7142 156.517 95.7142C156.581 95.7142 156.644 95.7269 156.703 95.7516C156.763 95.7762 156.816 95.8123 156.861 95.8579L175.546 115.971C175.591 116.016 175.627 116.07 175.652 116.129C175.676 116.188 175.689 116.251 175.689 116.315C175.689 116.38 175.676 116.443 175.652 116.502C175.627 116.561 175.591 116.615 175.546 116.66C175.497 116.715 175.437 116.757 175.37 116.784C175.302 116.811 175.229 116.822 175.157 116.816Z" fill="#331338"/>
<path d="M180.45 115.641C180.317 115.637 180.192 115.581 180.1 115.485L161.416 95.3625C161.369 95.3189 161.332 95.2663 161.307 95.2078C161.282 95.1494 161.269 95.0863 161.269 95.0226C161.269 94.9589 161.282 94.8959 161.307 94.8374C161.332 94.779 161.369 94.7263 161.416 94.6827C161.46 94.6375 161.513 94.6016 161.571 94.5771C161.63 94.5525 161.693 94.5399 161.756 94.5399C161.819 94.5399 161.882 94.5525 161.94 94.5771C161.999 94.6016 162.051 94.6375 162.096 94.6827L180.78 114.805C180.826 114.849 180.863 114.902 180.889 114.96C180.914 115.019 180.927 115.082 180.927 115.145C180.927 115.209 180.914 115.272 180.889 115.33C180.863 115.389 180.826 115.442 180.78 115.485C180.738 115.532 180.687 115.57 180.631 115.597C180.574 115.623 180.512 115.638 180.45 115.641Z" fill="#331338"/>
<path d="M185.761 114.698C185.629 114.695 185.504 114.639 185.412 114.543L166.728 94.4205C166.65 94.3249 166.612 94.2035 166.621 94.0808C166.629 93.9581 166.684 93.8432 166.774 93.7593C166.864 93.6755 166.982 93.6289 167.105 93.6291C167.229 93.6292 167.347 93.676 167.437 93.7601L186.121 113.883C186.167 113.926 186.204 113.979 186.23 114.037C186.255 114.096 186.268 114.159 186.268 114.223C186.268 114.286 186.255 114.349 186.23 114.408C186.204 114.466 186.167 114.519 186.121 114.563C186.074 114.609 186.018 114.646 185.956 114.669C185.894 114.693 185.828 114.703 185.761 114.698Z" fill="#331338"/>
<path d="M191.064 114.495C190.996 114.494 190.93 114.48 190.868 114.453C190.807 114.426 190.751 114.388 190.704 114.339L172.02 94.2166C171.975 94.1723 171.939 94.1194 171.915 94.061C171.89 94.0026 171.877 93.94 171.877 93.8767C171.877 93.8134 171.89 93.7507 171.915 93.6923C171.939 93.634 171.975 93.5811 172.02 93.5368C172.065 93.4913 172.119 93.4551 172.178 93.4305C172.237 93.4058 172.301 93.3931 172.365 93.3931C172.429 93.3931 172.493 93.4058 172.552 93.4305C172.611 93.4551 172.665 93.4913 172.71 93.5368L191.384 113.659C191.429 113.704 191.465 113.757 191.49 113.815C191.514 113.873 191.527 113.936 191.527 113.999C191.527 114.063 191.514 114.125 191.49 114.184C191.465 114.242 191.429 114.295 191.384 114.339C191.3 114.429 191.186 114.484 191.064 114.495Z" fill="#331338"/>
<path d="M196.366 113.31C196.298 113.311 196.231 113.297 196.17 113.271C196.108 113.244 196.052 113.204 196.007 113.154L177.332 93.0415C177.284 92.996 177.245 92.941 177.218 92.8799C177.192 92.8188 177.178 92.7529 177.178 92.6864C177.179 92.6198 177.192 92.5539 177.219 92.4929C177.246 92.4319 177.284 92.377 177.333 92.3316C177.382 92.2862 177.439 92.2513 177.502 92.2291C177.565 92.2069 177.631 92.1979 177.698 92.2025C177.764 92.2071 177.829 92.2254 177.888 92.2561C177.947 92.2868 177.999 92.3294 178.041 92.3811L196.716 112.494C196.784 112.561 196.831 112.647 196.85 112.742C196.868 112.836 196.858 112.933 196.82 113.022C196.782 113.11 196.719 113.185 196.638 113.236C196.557 113.287 196.462 113.313 196.366 113.31Z" fill="#331338"/>
<path d="M201.668 112.368C201.601 112.369 201.534 112.355 201.472 112.329C201.41 112.302 201.354 112.262 201.309 112.212L182.634 92.0994C182.589 92.0543 182.553 92.0006 182.528 91.9414C182.503 91.8822 182.491 91.8188 182.491 91.7547C182.491 91.6906 182.503 91.6271 182.528 91.5679C182.553 91.5087 182.589 91.455 182.634 91.4099C182.727 91.3203 182.85 91.2702 182.979 91.2702C183.108 91.2702 183.231 91.3203 183.324 91.4099L201.998 111.523C202.067 111.59 202.114 111.676 202.132 111.77C202.151 111.865 202.141 111.962 202.103 112.05C202.065 112.139 202.001 112.213 201.92 112.265C201.839 112.316 201.745 112.342 201.649 112.339L201.668 112.368Z" fill="#331338"/>
<path d="M134.312 106.9C134.183 106.9 134.06 106.849 133.969 106.758C133.878 106.667 133.827 106.543 133.827 106.414C133.827 106.286 133.878 106.162 133.969 106.071C134.06 105.98 134.183 105.929 134.312 105.929L207.582 100.471C207.711 100.462 207.838 100.504 207.935 100.589C208.033 100.674 208.093 100.794 208.102 100.922C208.111 101.051 208.068 101.178 207.984 101.276C207.899 101.373 207.779 101.433 207.65 101.442L134.39 106.9H134.312Z" fill="#331338"/>
<path d="M135.215 111.367C135.087 111.367 134.963 111.316 134.872 111.225C134.781 111.134 134.73 111.011 134.73 110.882C134.73 110.753 134.781 110.63 134.872 110.538C134.963 110.447 135.087 110.396 135.215 110.396L208.427 104.462C208.555 104.454 208.682 104.496 208.78 104.58C208.877 104.663 208.939 104.781 208.951 104.909C208.957 104.973 208.949 105.037 208.93 105.098C208.91 105.159 208.879 105.216 208.837 105.264C208.796 105.313 208.745 105.353 208.688 105.382C208.631 105.411 208.569 105.429 208.505 105.434L135.293 111.358L135.215 111.367Z" fill="#331338"/>
<path d="M189.112 96.2075L185.888 96.4017L154.531 98.2566L139.411 99.1598C138.896 99.1596 138.392 99.0158 137.954 98.7448C137.517 98.4737 137.164 98.0861 136.934 97.6254L136.866 97.4991C136.818 97.3627 136.779 97.2232 136.75 97.0815L154.366 96.1103L190.559 94.168V94.2554C190.623 94.4812 190.634 94.7187 190.592 94.9496C190.549 95.1805 190.455 95.3985 190.315 95.5871C190.175 95.7756 189.994 95.9296 189.786 96.0371C189.577 96.1447 189.347 96.203 189.112 96.2075Z" fill="#3D4778"/>
<path d="M174.254 91.439L142.576 93.0414C142.189 93.0651 141.806 92.9472 141.498 92.7097C141.191 92.4721 140.981 92.131 140.906 91.7498L135.079 67.2084L134.633 65.1786C134.608 65.0436 134.612 64.9048 134.644 64.7714C134.677 64.638 134.737 64.513 134.822 64.4047C134.906 64.2964 135.013 64.2073 135.134 64.1431C135.255 64.079 135.389 64.0414 135.526 64.0327L167.223 63.7996C167.586 63.7982 167.938 63.9192 168.224 64.143C168.509 64.3668 168.711 64.6803 168.796 65.033L169.233 66.7811L175.06 90.2639C175.089 90.3944 175.092 90.5296 175.066 90.661C175.041 90.7924 174.989 90.9172 174.913 91.0275C174.838 91.1378 174.74 91.2314 174.627 91.3022C174.513 91.373 174.386 91.4196 174.254 91.439Z" fill="#8D9FED"/>
<path d="M142.46 93.3911C142.004 93.3998 141.56 93.248 141.205 92.9621C140.85 92.6762 140.606 92.2746 140.518 91.8275L134.264 65.2563C134.223 65.0654 134.225 64.8678 134.271 64.678C134.316 64.4881 134.403 64.3108 134.526 64.1589C134.644 64.0141 134.792 63.8966 134.959 63.8144C135.127 63.7323 135.31 63.6875 135.497 63.683L167.194 63.45C167.642 63.4385 168.079 63.5821 168.433 63.8564C168.787 64.1307 169.036 64.5189 169.136 64.9553L175.429 90.2056C175.475 90.39 175.479 90.5821 175.443 90.7685C175.406 90.9548 175.328 91.1307 175.215 91.2836C175.104 91.4389 174.958 91.5667 174.79 91.6576C174.622 91.7484 174.435 91.7999 174.244 91.8081L142.576 93.3911H142.46ZM167.223 64.1492L135.526 64.3823C135.443 64.3849 135.361 64.4063 135.287 64.445C135.213 64.4837 135.149 64.5386 135.099 64.6057C135.041 64.6747 134.999 64.756 134.977 64.8436C134.955 64.9311 134.954 65.0224 134.973 65.1107L135.419 67.1307L141.246 91.6721C141.314 91.9629 141.484 92.2201 141.724 92.3979C141.964 92.5757 142.259 92.6627 142.557 92.6433L174.254 91.0408C174.336 91.035 174.417 91.0111 174.489 90.9708C174.561 90.9305 174.623 90.8749 174.671 90.8078C174.725 90.7366 174.762 90.6541 174.779 90.5665C174.796 90.479 174.792 90.3888 174.769 90.3028L168.486 65.0524C168.403 64.7845 168.235 64.5511 168.007 64.388C167.779 64.2248 167.503 64.141 167.223 64.1492Z" fill="#5361A3"/>
<path d="M169.233 66.7908L135.079 67.2084L134.633 65.1786C134.608 65.0436 134.612 64.9048 134.644 64.7714C134.677 64.638 134.737 64.513 134.822 64.4047C134.906 64.2964 135.013 64.2073 135.134 64.1431C135.255 64.079 135.389 64.0414 135.526 64.0327L167.223 63.7996C167.586 63.7982 167.938 63.9192 168.224 64.143C168.509 64.3668 168.711 64.6803 168.796 65.033L169.233 66.7908Z" fill="#5361A3"/>
<path d="M141.236 84.1844C141.146 84.1821 141.06 84.1458 140.995 84.0828C140.93 84.0198 140.891 83.9347 140.887 83.8445C140.884 83.7982 140.891 83.7519 140.907 83.7084C140.923 83.6649 140.947 83.6251 140.979 83.5915C141.011 83.5578 141.049 83.531 141.092 83.5128C141.134 83.4945 141.18 83.4851 141.226 83.4852L171.641 82.3003C171.688 82.2929 171.735 82.296 171.78 82.3095C171.825 82.323 171.867 82.3466 171.901 82.3783C171.936 82.4101 171.963 82.4493 171.98 82.493C171.997 82.5367 172.004 82.5837 172.001 82.6305C172.005 82.6763 171.999 82.7224 171.985 82.7659C171.97 82.8093 171.946 82.8493 171.915 82.8831C171.884 82.9169 171.846 82.9439 171.804 82.9622C171.762 82.9806 171.717 82.99 171.671 82.9899L141.246 84.1844H141.236Z" fill="#5361A3"/>
<path d="M140.44 81.2903C140.395 81.2916 140.351 81.2841 140.309 81.2682C140.267 81.2523 140.229 81.2283 140.197 81.1977C140.164 81.167 140.138 81.1303 140.12 81.0895C140.102 81.0487 140.092 81.0048 140.09 80.9601C140.087 80.868 140.12 80.7783 140.182 80.7096C140.243 80.641 140.329 80.5985 140.42 80.5911L170.845 79.6005C170.892 79.5964 170.94 79.6022 170.984 79.6175C171.029 79.6328 171.07 79.6572 171.105 79.6891C171.139 79.7211 171.167 79.76 171.186 79.8032C171.205 79.8465 171.214 79.8932 171.214 79.9404C171.214 80.0324 171.179 80.121 171.116 80.1879C171.053 80.2547 170.966 80.2948 170.874 80.2997L140.45 81.3195L140.44 81.2903Z" fill="#5361A3"/>
<path d="M139.663 78.4059C139.572 78.406 139.485 78.3705 139.419 78.307C139.354 78.2435 139.316 78.1571 139.314 78.066C139.311 78.0198 139.318 77.9735 139.334 77.93C139.35 77.8865 139.374 77.8467 139.406 77.813C139.438 77.7794 139.476 77.7526 139.519 77.7343C139.561 77.716 139.607 77.7066 139.653 77.7067L170.078 76.8424C170.302 76.8424 170.438 76.988 170.438 77.1823C170.439 77.2282 170.431 77.2739 170.415 77.3168C170.398 77.3597 170.374 77.399 170.342 77.4324C170.31 77.4658 170.273 77.4926 170.231 77.5113C170.189 77.53 170.144 77.5404 170.098 77.5416L139.673 78.4059H139.663Z" fill="#5361A3"/>
<path d="M138.886 75.5021C138.841 75.5034 138.795 75.4956 138.753 75.4791C138.711 75.4626 138.672 75.4378 138.639 75.4061C138.607 75.3744 138.581 75.3365 138.563 75.2946C138.546 75.2527 138.536 75.2077 138.537 75.1622C138.535 75.1163 138.543 75.0706 138.559 75.0277C138.576 74.9848 138.6 74.9455 138.632 74.9121C138.664 74.8788 138.701 74.8519 138.743 74.8332C138.785 74.8145 138.83 74.8042 138.876 74.8029L169.311 74.1037C169.403 74.1061 169.49 74.1438 169.555 74.2088C169.62 74.2738 169.658 74.3613 169.66 74.4533C169.66 74.546 169.624 74.6349 169.558 74.7005C169.492 74.7661 169.404 74.8029 169.311 74.8029L138.886 75.5021Z" fill="#5361A3"/>
<path d="M138.129 72.6081C138.036 72.6081 137.947 72.5712 137.881 72.5057C137.816 72.4401 137.779 72.3512 137.779 72.2585C137.779 72.1674 137.815 72.0799 137.878 72.0146C137.941 71.9493 138.028 71.9114 138.119 71.9088L168.563 71.3747C168.656 71.3747 168.745 71.4115 168.81 71.4771C168.876 71.5427 168.913 71.6316 168.913 71.7243C168.913 71.817 168.876 71.906 168.81 71.9715C168.745 72.0371 168.656 72.0739 168.563 72.0739L138.129 72.6081Z" fill="#5361A3"/>
<path d="M137.391 69.7043C137.298 69.7043 137.209 69.6675 137.143 69.6019C137.078 69.5363 137.041 69.4474 137.041 69.3547C137.041 69.2619 137.078 69.173 137.143 69.1074C137.209 69.0419 137.298 69.0051 137.391 69.0051L167.825 68.6263C167.871 68.6263 167.916 68.6353 167.959 68.6529C168.001 68.6705 168.04 68.6962 168.072 68.7287C168.105 68.7612 168.131 68.7997 168.148 68.8421C168.166 68.8846 168.175 68.93 168.175 68.9759C168.177 69.0217 168.171 69.0676 168.155 69.1106C168.139 69.1536 168.114 69.1928 168.082 69.2257C168.05 69.2586 168.011 69.2844 167.969 69.3016C167.926 69.3188 167.881 69.327 167.835 69.3255L137.391 69.7043Z" fill="#5361A3"/>
<path d="M186.791 93.0997L167.631 94.0709C166.563 94.1292 165.96 93.2551 165.591 92.1965L164.824 89.5064C164.475 88.0302 165.252 87.3893 166.66 87.4281L183.683 86.8357C183.939 86.824 184.195 86.863 184.436 86.9505C184.676 87.038 184.897 87.1723 185.086 87.3456C185.275 87.5189 185.427 87.7279 185.535 87.9604C185.642 88.1929 185.703 88.4443 185.713 88.7003L186.791 93.0997Z" fill="#5361A3"/>
<path d="M136.701 66.0916C136.996 66.0916 137.235 65.8481 137.235 65.5477C137.235 65.2473 136.996 65.0038 136.701 65.0038C136.406 65.0038 136.167 65.2473 136.167 65.5477C136.167 65.8481 136.406 66.0916 136.701 66.0916Z" fill="white"/>
<path d="M138.983 65.5574C138.985 65.6284 138.972 65.6989 138.945 65.7648C138.919 65.8307 138.88 65.8908 138.83 65.9414C138.781 65.992 138.721 66.0322 138.656 66.0597C138.59 66.0871 138.52 66.1013 138.449 66.1013C138.307 66.0987 138.171 66.0403 138.071 65.9386C137.971 65.8369 137.915 65.7 137.915 65.5574C137.915 65.4139 137.971 65.276 138.07 65.1727C138.17 65.0694 138.306 65.0089 138.449 65.0038C138.521 65.0051 138.591 65.0204 138.657 65.0489C138.722 65.0774 138.781 65.1186 138.831 65.17C138.88 65.2214 138.919 65.2821 138.946 65.3485C138.972 65.415 138.985 65.486 138.983 65.5574Z" fill="white"/>
<path d="M140.76 65.5574C140.771 65.6342 140.764 65.7124 140.742 65.7867C140.72 65.8609 140.682 65.9296 140.631 65.9879C140.58 66.0463 140.517 66.0931 140.446 66.1251C140.375 66.1572 140.299 66.1738 140.221 66.1738C140.144 66.1738 140.067 66.1572 139.997 66.1251C139.926 66.0931 139.863 66.0463 139.812 65.9879C139.761 65.9296 139.723 65.8609 139.701 65.7867C139.678 65.7124 139.672 65.6342 139.682 65.5574C139.672 65.4805 139.678 65.4024 139.701 65.3281C139.723 65.2539 139.761 65.1853 139.812 65.1269C139.863 65.0685 139.926 65.0217 139.997 64.9897C140.067 64.9576 140.144 64.941 140.221 64.941C140.299 64.941 140.375 64.9576 140.446 64.9897C140.517 65.0217 140.58 65.0685 140.631 65.1269C140.682 65.1853 140.72 65.2539 140.742 65.3281C140.764 65.4024 140.771 65.4805 140.76 65.5574Z" fill="white"/>
<g opacity="0.44">
<path opacity="0.44" d="M166.601 89.3608C166.571 89.3621 166.541 89.3573 166.513 89.3466C166.485 89.336 166.459 89.3197 166.437 89.2989C166.415 89.278 166.398 89.2529 166.386 89.2252C166.374 89.1974 166.368 89.1676 166.368 89.1374C166.368 89.0762 166.391 89.0172 166.433 88.9722C166.474 88.9272 166.531 88.8995 166.592 88.8946L183.965 88.273C184.025 88.273 184.083 88.2962 184.126 88.3378C184.17 88.3794 184.195 88.4363 184.198 88.4964C184.201 88.5273 184.197 88.5585 184.187 88.5878C184.177 88.6172 184.161 88.6442 184.14 88.6671C184.119 88.6899 184.093 88.7081 184.065 88.7205C184.036 88.733 184.006 88.7393 183.975 88.7392L166.611 89.3608H166.601Z" fill="white"/>
<path opacity="0.44" d="M166.999 91.0214C166.937 91.0214 166.878 90.9969 166.834 90.9532C166.79 90.9095 166.766 90.8502 166.766 90.7884C166.766 90.7265 166.79 90.6673 166.834 90.6235C166.878 90.5798 166.937 90.5553 166.999 90.5553L184.401 89.9434C184.461 89.9472 184.518 89.9715 184.562 90.0122C184.606 90.0528 184.635 90.1074 184.644 90.1668C184.644 90.228 184.621 90.287 184.58 90.332C184.538 90.377 184.481 90.4047 184.42 90.4096L167.008 91.0214H166.999Z" fill="white"/>
<path opacity="0.44" d="M167.514 92.721C167.454 92.721 167.396 92.6978 167.353 92.6562C167.309 92.6145 167.284 92.5577 167.281 92.4976C167.281 92.4364 167.304 92.3775 167.345 92.3324C167.387 92.2874 167.444 92.2597 167.505 92.2548L184.917 91.4681C184.947 91.4654 184.979 91.4692 185.008 91.4792C185.037 91.4892 185.064 91.5053 185.087 91.5263C185.11 91.5473 185.128 91.5728 185.141 91.6013C185.153 91.6297 185.159 91.6605 185.159 91.6915C185.161 91.7221 185.156 91.7527 185.145 91.7815C185.135 91.8103 185.119 91.8367 185.098 91.8592C185.077 91.8818 185.052 91.9 185.024 91.9129C184.997 91.9258 184.967 91.9331 184.936 91.9343L167.524 92.721H167.514Z" fill="white"/>
</g>
<path opacity="0.22" d="M183.052 63.4208L190.355 94.2651C190.427 94.4932 190.446 94.7351 190.408 94.9715C190.371 95.208 190.279 95.4324 190.139 95.6268C189.999 95.8212 189.816 95.9802 189.604 96.0912C189.392 96.2021 189.157 96.2619 188.917 96.2657L185.684 96.4502C179.624 94.605 173.943 89.0791 169.175 80.6105C164.649 72.5401 155.579 66.043 147.403 61.4688L180.488 61.3911C181.076 61.4132 181.641 61.6219 182.102 61.9868C182.563 62.3518 182.896 62.854 183.052 63.4208Z" fill="white"/>
<path opacity="0.22" d="M154.482 98.1595L139.372 99.0238C138.875 99.0257 138.387 98.8942 137.958 98.6431C137.529 98.392 137.176 98.0305 136.934 97.5962L136.866 97.47C136.819 97.3431 136.78 97.2133 136.75 97.0815C136.75 97.0815 136.75 97.0815 136.75 97.033L134.604 87.9817L133.477 83.2133C133.884 82.864 134.33 82.5641 134.807 82.3198C139.566 79.8822 146.995 82.9316 151.394 89.118C152.919 91.188 153.94 93.5857 154.375 96.1201C154.471 96.7954 154.507 97.4779 154.482 98.1595Z" fill="white"/>
<path d="M130.457 144.193C130.364 144.194 130.272 144.167 130.195 144.115C130.088 144.044 130.014 143.934 129.989 143.808C129.963 143.683 129.989 143.552 130.059 143.445C132.661 139.453 134.424 134.974 135.241 130.279C136.057 125.584 135.91 120.772 134.808 116.136C134.77 116.007 134.786 115.869 134.85 115.751C134.915 115.634 135.024 115.547 135.152 115.509C135.281 115.472 135.419 115.487 135.537 115.552C135.654 115.617 135.741 115.725 135.779 115.854C136.915 120.636 137.065 125.6 136.22 130.442C135.375 135.284 133.553 139.903 130.865 144.018C130.816 144.077 130.753 144.124 130.682 144.155C130.611 144.185 130.534 144.198 130.457 144.193Z" fill="#331338"/>
<path d="M195.987 121.701L192.404 126.838C191.687 127.746 190.725 128.429 189.632 128.806C188.539 129.183 187.361 129.238 186.237 128.965C183.567 128.266 177.691 120.729 177.691 120.729L182.149 113.718L195.987 121.701Z" fill="#FF9A75"/>
<path d="M170.981 118.447C175.565 116.33 179.896 117.029 184.072 119.681C184.8 120.147 185.499 120.652 186.179 121.137C186.519 121.4 186.859 121.652 187.15 121.924C187.441 122.196 187.801 122.439 188.17 122.769C188.437 123.004 188.656 123.29 188.812 123.609C188.969 123.929 189.062 124.276 189.084 124.632C189.107 124.987 189.059 125.343 188.944 125.68C188.829 126.017 188.648 126.328 188.413 126.595C186.995 128.198 185.208 127.363 183.848 126.178C182.159 124.702 180.819 123.06 178.789 121.973C176.303 120.642 173.535 121.079 171.02 122.099C169.923 122.536 167.039 122.759 166.514 121.128C166.359 120.39 169.466 119.088 170.981 118.447Z" fill="#FF9A75"/>
<path d="M163.941 116.116C166.057 115.108 168.261 114.295 170.525 113.688C172.778 112.921 175.194 112.767 177.526 113.242C180.275 114.05 182.933 115.137 185.46 116.485C187.558 117.515 189.607 118.564 191.675 119.7C192.001 119.863 192.29 120.09 192.526 120.368C192.762 120.645 192.939 120.968 193.048 121.315C193.156 121.663 193.193 122.029 193.157 122.391C193.121 122.754 193.012 123.105 192.837 123.425C192.662 123.744 192.425 124.025 192.139 124.25C191.853 124.476 191.524 124.641 191.173 124.737C190.821 124.832 190.454 124.856 190.093 124.807C189.733 124.757 189.386 124.636 189.073 124.449C189.015 124.422 188.959 124.39 188.908 124.352C187.043 123.148 185.111 121.953 183.178 120.817C180.682 119.38 177.701 117.214 174.749 116.99C172.282 116.869 169.816 117.269 167.514 118.166C166.262 118.622 162.989 119.894 161.862 118.34C161.299 117.534 162.542 116.777 163.941 116.116Z" fill="#FF9A75"/>
<path d="M168.417 110.901C170.72 110.502 173.075 110.522 175.371 110.959C176.915 111.307 178.41 111.849 179.818 112.572C180.935 113.096 182.023 113.669 183.091 114.252C185.218 115.437 187.247 116.67 189.296 118.03C189.872 118.436 190.267 119.051 190.397 119.743C190.527 120.436 190.382 121.152 189.992 121.739C189.603 122.327 189.001 122.74 188.312 122.89C187.624 123.041 186.904 122.917 186.305 122.546L186.13 122.429C184.382 121.06 182.489 119.69 180.605 118.447C178.061 116.767 175.167 114.951 172.02 114.679C169.86 114.501 167.686 114.576 165.543 114.902C164.251 115.097 160.221 116.573 159.503 114.193C159.182 113.115 164.786 111.766 165.456 111.581C166.43 111.3 167.418 111.073 168.417 110.901Z" fill="#FF9A75"/>
<path d="M164.64 107.172C167.054 107.678 169.429 108.353 171.748 109.192C174.066 110.012 176.335 110.962 178.546 112.037C180.751 113.106 182.897 114.261 185.004 115.495C186.053 116.107 187.092 116.738 188.131 117.389C189.17 118.039 190.17 118.68 191.229 119.418C191.788 119.84 192.162 120.462 192.273 121.153C192.384 121.845 192.223 122.552 191.823 123.127C191.424 123.702 190.817 124.101 190.131 124.238C189.444 124.376 188.731 124.243 188.141 123.866L187.995 123.759C187.14 123.08 186.179 122.361 185.256 121.691C184.334 121.021 183.363 120.331 182.401 119.681C180.459 118.379 178.517 117.136 176.497 115.99C174.477 114.844 172.438 113.747 170.34 112.785C168.243 111.824 164.514 110.532 164.514 110.532C162.95 109.979 161.6 108.697 161.872 107.842C162.144 106.987 163.834 107.007 164.64 107.172Z" fill="#FF9A75"/>
<path d="M188.811 127.741C189.083 127.994 197.123 133.772 199.639 136.55L205.902 128.47C200.582 124.526 194.994 120.956 189.18 117.787L188.811 127.741Z" fill="#FF9A75"/>
<path d="M270.277 136.715L209.796 127.003L211.991 106.453C213.104 106.923 214.246 107.322 215.409 107.648C217.352 107.997 218.439 105.006 221.158 104.734C223.877 104.462 225.538 105.851 226.606 106.094C229.626 106.774 232.103 105.317 233.851 104.734C238.133 103.297 248.32 103.86 259.352 103.685L289.116 103.229C289.602 103.229 296.594 100.986 296.681 100.655L291.156 124.789C289.558 128.86 286.616 132.263 282.818 134.433C279.021 136.602 274.595 137.407 270.277 136.715Z" fill="#F2D75E"/>
<path d="M213.467 115.971C213.345 117.339 213.137 118.698 212.846 120.04C212.778 120.36 212.7 120.671 212.622 121.011C211.972 123.517 211.088 125.119 210.263 125.051C209.291 124.954 208.66 122.536 208.621 119.166C208.621 118.894 208.621 118.612 208.621 118.331C208.621 117.457 208.68 116.534 208.767 115.573C208.942 113.297 209.402 111.052 210.136 108.891C210.172 108.782 210.215 108.675 210.263 108.57C210.787 107.25 211.389 106.482 211.972 106.531C212.719 106.599 213.263 108.046 213.487 110.241C213.487 110.474 213.487 110.707 213.555 110.95C213.652 112.623 213.622 114.302 213.467 115.971Z" fill="#331338"/>
<path d="M296.536 88.341C294.749 77.1046 287.601 69.6946 274.841 70.4618C266.198 70.9862 260.876 75.2399 254.079 83.9319C250.34 88.71 245.484 88.7295 242.649 96.3337C240.415 102.326 244.892 108.736 244.882 109.066C244.766 114.805 245.077 115.582 242.095 125.634C240.833 129.878 233.181 142.192 233.181 142.192C228.947 160.538 217.206 173.425 231.345 183.952C237.444 188.478 254.496 192.839 260.799 185.147C269.801 171.395 283.571 148.485 290.621 125.498C294.477 113.795 297.953 96.9358 296.536 88.341Z" fill="#F2D75E"/>
<path d="M244.164 170.094C244.164 170.094 219.158 155.973 211.573 151.729C207.689 149.554 205.446 150.612 201.862 148.757C197.609 146.563 197.599 145.436 196.143 142.221C195.123 139.968 191.841 139.803 190.316 139.036L197.376 121.254C199.852 122.526 200.561 123.342 202.105 124.099C205.067 125.546 206.883 123.983 209.796 124.245C246.912 127.566 280.415 138.968 280.415 138.968L269.529 161.451C266.921 165.569 262.984 168.672 258.37 170.244C253.756 171.816 248.743 171.763 244.164 170.094Z" fill="#F2D75E"/>
<path d="M291.156 124.789C283.591 149.661 268.733 169.773 260.207 167.948C251.68 166.122 254.089 142.503 265.062 116.961C274.715 94.4691 281.241 75.104 289.767 76.9201C298.293 78.7362 300.274 94.7604 291.156 124.789Z" fill="#F2D75E"/>
<path d="M287.417 71.1804C288.951 74.5407 293.632 78.066 286.378 81.3777C279.124 84.6894 263.129 89.4481 260.711 86.0393C258.575 83.0287 263.421 77.2988 270.219 73.1713C276.065 69.5877 285.873 67.8202 287.417 71.1804Z" fill="#FF9A75"/>
<path d="M265.586 56.0788C265.586 56.0788 268.946 60.3325 263.469 62.4497C257.992 64.5668 251.971 70.219 254.797 75.8906C257.623 81.5622 271.102 77.1434 274.715 70.7726C278.327 64.4017 276.909 54.8454 276.909 54.8454L265.586 56.0788Z" fill="#702831"/>
<path d="M260.478 81.2515C258.021 81.2515 256.079 79.5714 255.429 76.8618C254.993 75.172 255.129 73.3854 255.816 71.7812C256.503 70.177 257.702 68.8456 259.226 67.995C264.683 65.1787 266.412 63.0032 266.431 62.9838C266.468 62.9289 266.516 62.8823 266.572 62.8467C266.628 62.8111 266.691 62.7873 266.756 62.7769C266.822 62.7664 266.889 62.7694 266.953 62.7858C267.017 62.8021 267.077 62.8315 267.13 62.872C267.182 62.9125 267.226 62.9633 267.258 63.0213C267.29 63.0793 267.31 63.1433 267.316 63.2093C267.323 63.2753 267.316 63.3419 267.295 63.405C267.275 63.4681 267.242 63.5264 267.198 63.5762C267.13 63.6733 265.353 65.9265 259.672 68.8594C258.341 69.608 257.296 70.7762 256.698 72.1817C256.101 73.5872 255.986 75.1509 256.37 76.6287C256.924 78.9207 258.458 80.2803 260.478 80.2803C260.607 80.2803 260.731 80.3315 260.822 80.4225C260.913 80.5136 260.964 80.6371 260.964 80.7659C260.964 80.8947 260.913 81.0182 260.822 81.1093C260.731 81.2003 260.607 81.2515 260.478 81.2515Z" fill="#331338"/>
<path d="M263.557 80.9116C263.486 80.9117 263.416 80.896 263.353 80.8658C263.289 80.8355 263.232 80.7915 263.188 80.7368C262.6 80.0803 262.152 79.3116 261.87 78.477C261.588 77.6424 261.478 76.7592 261.547 75.8809C261.896 71.9186 265.664 68.7331 265.819 68.6069C265.919 68.5247 266.047 68.4847 266.176 68.4956C266.305 68.5065 266.424 68.5674 266.509 68.6652C266.588 68.7671 266.624 68.8952 266.612 69.0234C266.599 69.1516 266.538 69.2701 266.441 69.3547C266.441 69.3547 262.828 72.4138 262.556 75.9683C262.492 76.7245 262.585 77.4859 262.829 78.2045C263.073 78.9231 263.463 79.5836 263.974 80.1443C264.033 80.2167 264.069 80.3039 264.08 80.3961C264.092 80.4883 264.076 80.5818 264.037 80.6658C263.997 80.7499 263.935 80.8211 263.857 80.8714C263.779 80.9218 263.688 80.9491 263.596 80.9504L263.557 80.9116Z" fill="#331338"/>
<path d="M285.853 80.2415L268.626 76.1626C270.087 74.133 271.245 71.9019 272.064 69.5392C272.45 68.4479 272.774 67.3358 273.035 66.2081C273.19 65.5283 273.326 64.8387 273.433 64.1686C273.732 62.3377 273.901 60.4878 273.938 58.633C274.008 55.1577 273.65 51.6871 272.87 48.2998L290.262 42.5893C290.388 43.473 292.962 64.5474 285.853 80.2415Z" fill="#FF9A75"/>
<path d="M281.444 61.7019C281.328 61.9058 278.123 67.5289 272.063 69.5392C272.449 68.4479 272.774 67.3358 273.035 66.2081C273.19 65.5283 273.326 64.8388 273.433 64.1686C276.177 63.6073 278.86 62.7812 281.444 61.7019Z" fill="#331338"/>
<path d="M290.078 56.5935L284.504 61.4494C283.136 62.6679 281.532 63.591 279.791 64.1608C278.05 64.7306 276.211 64.9349 274.388 64.7607C272.564 64.5866 270.797 64.0379 269.195 63.1489C267.594 62.2599 266.193 61.0498 265.081 59.5944C264.522 58.8358 264.046 58.0184 263.664 57.1568L260.333 46.474C258.682 39.6758 261.838 34.82 266.159 33.4021L280.658 28.6142L290.078 56.5935Z" fill="#FF9A75"/>
<path d="M303.964 30.6634C299.361 34.3344 290.165 35.1404 288.048 33.1204C287.077 32.1492 288.893 21.2236 293.486 17.5817C298.08 13.9399 304.168 13.8622 307.082 17.4846C309.995 21.1071 308.568 26.9923 303.964 30.6634Z" fill="#86303A"/>
<path d="M292.69 30.9741C292.579 30.9746 292.472 30.9374 292.385 30.8685C292.299 30.7996 292.238 30.7033 292.214 30.5954C292.19 30.4682 292.217 30.3369 292.287 30.2285C292.358 30.1201 292.467 30.0429 292.593 30.0127C292.7 30.0127 303.022 27.7596 307.82 19.5629C310.733 14.6197 311.053 8.50132 308.791 1.39237C308.77 1.33186 308.761 1.2677 308.765 1.20376C308.77 1.13982 308.787 1.07741 308.816 1.02027C308.845 0.963135 308.885 0.91245 308.934 0.871255C308.983 0.830059 309.04 0.799198 309.101 0.780534C309.163 0.761017 309.227 0.75384 309.291 0.759417C309.355 0.764993 309.417 0.783215 309.474 0.813024C309.531 0.842833 309.582 0.883635 309.623 0.933071C309.664 0.982508 309.694 1.03959 309.713 1.10102C312.044 8.48189 311.655 14.8625 308.635 20.0679C303.615 28.6336 293.214 30.877 292.767 30.9644L292.69 30.9741Z" fill="#331338"/>
<path d="M293.991 22.593C293.946 22.6019 293.9 22.6019 293.855 22.593C293.733 22.5549 293.631 22.4703 293.571 22.3576C293.511 22.245 293.498 22.1132 293.535 21.9908C294.904 17.3001 299.284 13.901 305.858 12.4151L306.14 12.3569C306.262 12.317 306.395 12.3274 306.51 12.3857C306.624 12.4439 306.711 12.5453 306.751 12.6676C306.771 12.7276 306.778 12.7908 306.773 12.8536C306.768 12.9165 306.751 12.9777 306.722 13.0337C306.693 13.0897 306.653 13.1394 306.605 13.1799C306.557 13.2205 306.501 13.251 306.441 13.2698L306.072 13.3669C299.769 14.7945 295.749 17.8634 294.418 22.2628C294.389 22.3546 294.332 22.4354 294.256 22.4943C294.18 22.5533 294.087 22.5877 293.991 22.593Z" fill="#331338"/>
<path d="M255.39 128.052H255.263C246.154 125.546 240.881 104.851 241.629 98.7325C241.637 98.6687 241.657 98.6071 241.688 98.5511C241.72 98.4951 241.762 98.4459 241.812 98.4062C241.863 98.3665 241.921 98.3372 241.983 98.3198C242.044 98.3025 242.109 98.2975 242.173 98.3052C242.237 98.3128 242.298 98.333 242.354 98.3644C242.41 98.3959 242.459 98.4381 242.499 98.4886C242.539 98.5391 242.568 98.5969 242.585 98.6588C242.603 98.7206 242.608 98.7853 242.6 98.849C241.843 105.366 247.456 124.886 255.564 127.1C255.626 127.116 255.684 127.144 255.735 127.183C255.785 127.221 255.828 127.269 255.86 127.325C255.891 127.38 255.912 127.441 255.919 127.504C255.927 127.567 255.922 127.631 255.904 127.693C255.875 127.804 255.807 127.901 255.713 127.967C255.619 128.033 255.504 128.063 255.39 128.052Z" fill="#331338"/>
<path d="M241.085 128.897C240.955 128.889 240.832 128.832 240.744 128.736C240.655 128.64 240.607 128.513 240.609 128.382C240.649 128.076 240.738 127.777 240.872 127.498C242.846 122.273 243.764 116.707 243.571 111.125C243.57 111.061 243.581 110.997 243.605 110.938C243.628 110.879 243.663 110.824 243.707 110.778C243.751 110.732 243.804 110.696 243.862 110.67C243.921 110.644 243.983 110.631 244.047 110.629C244.111 110.627 244.175 110.637 244.235 110.66C244.295 110.683 244.35 110.717 244.396 110.762C244.443 110.806 244.479 110.859 244.505 110.918C244.53 110.977 244.543 111.041 244.543 111.105C244.748 116.811 243.824 122.501 241.823 127.848C241.739 128.041 241.668 128.239 241.61 128.441C241.609 128.506 241.594 128.571 241.567 128.63C241.539 128.69 241.499 128.743 241.45 128.786C241.4 128.829 241.342 128.861 241.279 128.88C241.217 128.9 241.15 128.905 241.085 128.897Z" fill="#331338"/>
<path d="M220.197 128.071C217.935 127.982 215.75 127.229 213.914 125.906C210.573 123.672 205.601 124.935 205.553 124.935C205.491 124.952 205.427 124.957 205.364 124.95C205.301 124.942 205.24 124.922 205.184 124.89C205.129 124.858 205.081 124.816 205.042 124.765C205.004 124.714 204.976 124.656 204.96 124.595C204.944 124.533 204.94 124.468 204.949 124.405C204.958 124.342 204.98 124.281 205.012 124.226C205.044 124.171 205.087 124.123 205.139 124.084C205.19 124.046 205.248 124.018 205.31 124.002C205.523 123.944 210.758 122.604 214.458 125.08C216.213 126.375 218.346 127.058 220.527 127.023C220.656 127.008 220.785 127.046 220.886 127.127C220.987 127.208 221.052 127.326 221.066 127.455C221.08 127.584 221.043 127.713 220.961 127.814C220.88 127.915 220.763 127.98 220.634 127.994C220.634 127.994 220.459 128.071 220.197 128.071Z" fill="#331338"/>
<path d="M262.362 136.899C262.266 136.901 262.171 136.874 262.09 136.822C261.268 136.378 260.414 135.995 259.536 135.676C258.488 135.258 257.313 134.811 256.04 134.365C252.748 133.19 249 132.034 245.213 131.014H245.115C244.64 130.878 244.144 130.752 243.649 130.626L243.27 130.529C232.51 127.761 222.333 125.148 216.303 127.071C216.18 127.111 216.047 127.101 215.933 127.042C215.818 126.984 215.731 126.883 215.691 126.76C215.671 126.699 215.664 126.635 215.67 126.571C215.675 126.507 215.694 126.444 215.723 126.388C215.753 126.331 215.794 126.28 215.843 126.239C215.893 126.198 215.95 126.167 216.011 126.149C222.314 124.138 232.608 126.78 243.513 129.586L243.892 129.684L245.416 130.082C249.233 131.053 253.011 132.277 256.341 133.452C257.623 133.908 258.808 134.355 259.876 134.782C260.816 135.128 261.728 135.543 262.605 136.025C262.697 136.08 262.767 136.164 262.805 136.263C262.844 136.363 262.848 136.472 262.816 136.574C262.785 136.676 262.72 136.764 262.633 136.825C262.545 136.886 262.44 136.915 262.333 136.909L262.362 136.899Z" fill="#331338"/>
<path d="M202.999 149.767C202.938 149.78 202.875 149.78 202.814 149.767C200.874 148.928 199.159 147.643 197.809 146.016C196.459 144.39 195.512 142.467 195.045 140.405C195.045 140.277 195.096 140.153 195.187 140.062C195.278 139.971 195.402 139.92 195.531 139.92C195.659 139.92 195.783 139.971 195.874 140.062C195.965 140.153 196.016 140.277 196.016 140.405C196.016 140.561 197.454 146.543 203.202 148.893C203.262 148.917 203.316 148.952 203.362 148.996C203.407 149.041 203.444 149.094 203.469 149.153C203.495 149.211 203.508 149.274 203.509 149.338C203.51 149.402 203.498 149.465 203.474 149.525C203.427 149.606 203.356 149.673 203.272 149.716C203.188 149.759 203.093 149.777 202.999 149.767Z" fill="#331338"/>
<path d="M234.977 163.606C234.919 163.616 234.86 163.616 234.802 163.606L233.394 163.043C227.082 160.518 219.216 157.381 213.972 152.584C210.029 148.981 207.349 148.699 207.32 148.699C207.256 148.695 207.194 148.678 207.137 148.649C207.08 148.621 207.028 148.581 206.987 148.533C206.902 148.435 206.859 148.308 206.868 148.18C206.877 148.051 206.937 147.931 207.035 147.846C207.132 147.761 207.259 147.719 207.388 147.728C207.514 147.728 210.398 147.98 214.632 151.836C219.76 156.517 227.529 159.605 233.773 162.111L235.181 162.674C235.299 162.724 235.394 162.817 235.444 162.935C235.495 163.053 235.498 163.185 235.453 163.305C235.414 163.398 235.347 163.476 235.262 163.53C235.177 163.584 235.078 163.611 234.977 163.606Z" fill="#331338"/>
<path d="M284.202 142.989H284.076C284.014 142.972 283.956 142.943 283.905 142.903C283.854 142.864 283.812 142.815 283.78 142.759C283.749 142.703 283.729 142.641 283.721 142.577C283.713 142.513 283.719 142.448 283.736 142.386C285.343 137.006 285 131.232 282.765 126.081C282.706 125.966 282.695 125.832 282.734 125.71C282.773 125.587 282.859 125.484 282.974 125.425C283.089 125.366 283.222 125.355 283.345 125.394C283.468 125.433 283.57 125.519 283.63 125.634C283.785 125.925 287.388 132.986 284.669 142.658C284.635 142.755 284.571 142.838 284.488 142.897C284.404 142.957 284.305 142.988 284.202 142.989Z" fill="#331338"/>
<path d="M183.246 119.127C183.173 119.126 183.102 119.109 183.036 119.077C182.971 119.045 182.913 118.999 182.867 118.942C182.867 118.942 181.294 117.194 175.584 117.515C175.52 117.519 175.456 117.51 175.396 117.489C175.336 117.468 175.28 117.436 175.232 117.394C175.184 117.351 175.145 117.3 175.117 117.242C175.09 117.185 175.073 117.122 175.07 117.058C175.064 116.93 175.109 116.805 175.194 116.709C175.279 116.613 175.398 116.554 175.526 116.544C181.887 116.175 183.567 118.253 183.635 118.34C183.713 118.442 183.748 118.571 183.731 118.698C183.715 118.826 183.649 118.941 183.547 119.02C183.461 119.088 183.356 119.126 183.246 119.127Z" fill="#C25638"/>
<path d="M184.975 115.98C184.86 115.982 184.749 115.94 184.664 115.864C184.664 115.864 182.848 114.436 177.866 113.756C174.323 113.419 170.748 113.806 167.359 114.893C167.237 114.933 167.103 114.925 166.987 114.868C166.871 114.812 166.781 114.713 166.737 114.592C166.697 114.471 166.706 114.338 166.763 114.224C166.819 114.11 166.918 114.022 167.039 113.98C170.569 112.832 174.299 112.428 177.993 112.795C183.353 113.514 185.247 115.058 185.334 115.116C185.432 115.201 185.493 115.32 185.504 115.449C185.515 115.578 185.475 115.706 185.392 115.806C185.343 115.867 185.279 115.915 185.206 115.946C185.133 115.976 185.053 115.988 184.975 115.98Z" fill="#C25638"/>
<path d="M177.536 111.97C177.472 111.978 177.406 111.978 177.342 111.97C172.147 109.658 166.485 111.688 166.427 111.707C166.368 111.731 166.304 111.742 166.241 111.74C166.177 111.738 166.114 111.724 166.057 111.698C165.999 111.672 165.946 111.634 165.903 111.587C165.86 111.54 165.827 111.486 165.805 111.426C165.782 111.366 165.771 111.302 165.772 111.238C165.774 111.173 165.788 111.11 165.814 111.051C165.84 110.992 165.878 110.939 165.925 110.895C165.972 110.851 166.027 110.817 166.087 110.794C166.339 110.707 172.185 108.609 177.74 111.076C177.857 111.129 177.948 111.226 177.994 111.346C178.039 111.467 178.035 111.6 177.983 111.717C177.94 111.797 177.876 111.864 177.797 111.909C177.717 111.953 177.627 111.975 177.536 111.97Z" fill="#C25638"/>
<path d="M271.53 47.8433C271.675 48.7368 271.345 49.5331 270.792 49.6205C270.238 49.7079 269.665 49.067 269.51 48.1735C269.354 47.28 269.694 46.4837 270.248 46.3963C270.801 46.3089 271.374 46.9498 271.53 47.8433Z" fill="#331338"/>
<path d="M263.489 49.4943C263.634 50.3878 263.304 51.1841 262.751 51.2715C262.197 51.3589 261.624 50.718 261.469 49.8245C261.314 48.931 261.653 48.1347 262.207 48.0375C262.76 47.9404 263.333 48.63 263.489 49.4943Z" fill="#331338"/>
<path d="M269.412 57.6424C269.284 57.663 269.152 57.6316 269.046 57.5551C268.941 57.4786 268.87 57.3633 268.849 57.2345C268.829 57.1057 268.86 56.974 268.936 56.8684C269.013 56.7628 269.128 56.6918 269.257 56.6712C270.142 56.3511 270.884 55.7273 271.352 54.9109C271.819 54.0946 271.982 53.1387 271.811 52.2136C271.793 52.0848 271.827 51.9541 271.905 51.8503C271.984 51.7465 272.1 51.678 272.229 51.66C272.357 51.642 272.488 51.6758 272.592 51.7542C272.696 51.8325 272.764 51.9488 272.782 52.0776C272.976 53.2266 272.761 54.407 272.176 55.4145C271.591 56.422 270.671 57.1929 269.578 57.5938C269.527 57.6219 269.47 57.6384 269.412 57.6424Z" fill="#D9415D"/>
<path d="M84.7761 208.028C84.7031 208.028 84.6309 208.012 84.5652 207.98C84.4996 207.948 84.4421 207.901 84.3974 207.843C84.3198 207.74 84.2846 207.611 84.2991 207.483C84.3135 207.355 84.3765 207.237 84.4751 207.154C84.5819 207.086 94.4775 199.384 98.2745 192.975C100.217 189.75 100.984 185.137 101.761 180.68C102.538 176.222 103.256 172.036 105.043 169.608C105.122 169.507 105.237 169.441 105.363 169.423C105.49 169.405 105.619 169.436 105.723 169.511C105.775 169.549 105.818 169.596 105.852 169.651C105.885 169.705 105.908 169.766 105.917 169.829C105.927 169.892 105.925 169.957 105.91 170.019C105.895 170.081 105.867 170.139 105.83 170.191C104.169 172.434 103.46 176.513 102.712 180.874C101.926 185.419 101.11 190.119 99.0999 193.499C95.2155 200.054 85.5044 207.639 85.0772 207.96C84.9869 208.015 84.8812 208.038 84.7761 208.028Z" fill="#331338"/>
<path d="M214.856 125.993C214.761 125.994 214.668 125.967 214.589 125.915C214.509 125.864 214.446 125.79 214.408 125.703C214.37 125.617 214.358 125.521 214.374 125.427C214.389 125.334 214.432 125.247 214.496 125.177C214.496 125.177 216.351 123.031 216.847 116.952C217.4 110.027 215.128 108.085 215.099 108.065C215 107.984 214.938 107.867 214.925 107.739C214.912 107.612 214.95 107.485 215.031 107.386C215.069 107.336 215.116 107.294 215.171 107.262C215.225 107.231 215.285 107.21 215.347 107.202C215.41 107.194 215.473 107.198 215.534 107.215C215.594 107.231 215.651 107.26 215.701 107.298C215.817 107.386 218.42 109.503 217.808 117.01C217.293 123.468 215.293 125.75 215.215 125.818C215.123 125.922 214.994 125.985 214.856 125.993Z" fill="#331338"/>
<path d="M195.094 141.901C195.033 141.91 194.97 141.91 194.909 141.901C194.791 141.851 194.697 141.758 194.646 141.64C194.595 141.522 194.592 141.39 194.637 141.27C197.832 133.325 201.649 123.944 201.649 123.944L202.552 124.313C202.552 124.313 198.726 133.685 195.54 141.629C195.502 141.714 195.438 141.785 195.359 141.833C195.279 141.882 195.187 141.905 195.094 141.901Z" fill="#331338"/>
<path d="M265.198 43.9684C265.532 43.3953 266.034 42.938 266.635 42.6573C267.19 42.3768 267.793 42.2053 268.412 42.1523C269.015 42.0939 269.624 42.1233 270.218 42.2397C270.812 42.357 271.379 42.5843 271.889 42.9098C271.937 42.9403 271.979 42.9803 272.012 43.0274C272.045 43.0746 272.068 43.1278 272.08 43.184C272.092 43.2402 272.092 43.2982 272.081 43.3546C272.07 43.4109 272.047 43.4644 272.015 43.5119C271.963 43.5982 271.879 43.6609 271.782 43.6867C271.253 43.8359 270.714 43.9494 270.17 44.0266C269.665 44.114 269.199 44.1723 268.684 44.25C268.169 44.3277 267.713 44.386 267.247 44.4539C266.781 44.5219 266.276 44.5705 265.722 44.5802H265.586C265.476 44.5802 265.369 44.5362 265.291 44.4579C265.213 44.3796 265.169 44.2733 265.169 44.1626C265.165 44.0965 265.175 44.0304 265.198 43.9684Z" fill="#702831"/>
<path d="M262.343 45.6776C262.191 45.8354 262.021 45.9754 261.838 46.0952L261.362 46.4545C261.19 46.585 261.033 46.7349 260.896 46.9013C260.689 47.1445 260.497 47.4007 260.323 47.6685C260.038 47.3912 259.859 47.0239 259.814 46.629C259.77 46.2342 259.864 45.8362 260.08 45.5028C260.28 45.1535 260.563 44.8596 260.906 44.6482C261.239 44.4437 261.621 44.333 262.013 44.3277C262.19 44.3301 262.36 44.4012 262.487 44.5261C262.614 44.651 262.687 44.82 262.692 44.9978C262.692 45.1523 262.641 45.3023 262.547 45.4251L262.343 45.6776Z" fill="#702831"/>
<path d="M310.869 55.1853L302.129 111.348C300.518 120.503 295.729 128.796 288.607 134.768C281.484 140.741 272.483 144.009 263.188 143.999H234.744C231.027 143.994 227.445 145.391 224.712 147.912C221.98 150.432 220.298 153.889 220.003 157.595L217.487 189.886L126.65 189.809L123.814 152.7C123.629 150.247 122.527 147.954 120.728 146.277C118.928 144.6 116.563 143.661 114.103 143.649H113.511C106.072 143.649 100.314 150.447 101.333 158.013L113.958 251.517H131.37L212.68 251.614L299.837 251.711L330.077 80.8436C330.592 77.8864 330.496 74.8552 329.796 71.9363C329.097 69.0174 327.808 66.2722 326.009 63.8694C324.211 61.4666 321.94 59.4569 319.336 57.9635C316.732 56.4702 313.851 55.5248 310.869 55.1853Z" fill="#F2AE72"/>
<path d="M283.746 35.2958C291.593 37.5295 299.536 40.2196 306.227 45.0075C308.229 46.4379 310.084 48.0645 311.763 49.8633C316.489 55.0899 319.484 61.6504 320.337 68.6457L320.444 69.6169L320.668 71.6175L320.813 72.8606C320.993 74.4064 320.812 75.9729 320.286 77.4373C319.759 78.9017 318.9 80.2242 317.777 81.3013C316.654 82.3784 315.297 83.1808 313.812 83.6457C312.327 84.1106 310.754 84.2253 309.217 83.9808C307.68 83.7363 306.221 83.1393 304.953 82.2366C303.686 81.3338 302.645 80.1498 301.911 78.7773C301.177 77.4049 300.771 75.8811 300.725 74.3256C300.679 72.77 300.993 71.2249 301.644 69.8111C302.758 67.5052 303.056 64.8889 302.489 62.3914C302.157 61.1272 301.626 59.9239 300.915 58.8272C300.095 57.6141 299.115 56.5166 298.002 55.5641C292.554 50.7082 295.341 49.3486 288.738 47.3189C290.466 46.1243 285.29 44.6287 287.232 43.7547C285.378 44.7259 285.718 41.4433 283.659 41.5501C284.494 39.6661 282.086 44.3957 283.746 43.3565C282.144 42.3853 272.88 41.8609 274.569 38.5007C276.133 35.3735 279.425 34.3732 282.659 35.0627L283.746 35.2958Z" fill="#FCD8AE"/>
<path d="M256.196 33.9556C260.197 38.4133 267.752 45.0658 282.629 46.9984C282.629 46.9984 288.019 45.9592 287.271 50.1255C286.524 54.2918 274.851 70.7434 277.725 85.6314C280.6 100.519 299.197 88.8848 296.439 103.549C294.604 112.314 292.299 120.973 289.534 129.489C314.686 137.2 327.135 98.2081 320.444 81.0184C317.783 74.1717 314.676 67.6454 309.442 62.6148C303.091 56.4964 300.634 49.9896 298.313 41.7347C296.458 35.1599 293.36 28.2257 287.223 24.6518C281.318 21.2139 272.103 22.457 265.907 23.8652C259.109 25.4288 251.34 28.5656 256.196 33.9556Z" fill="#86303A"/>
<path d="M220.886 47.2218C220.726 47.5131 220.544 47.7923 220.343 48.057C219.849 48.6793 219.388 49.3277 218.964 49.9993C218.507 50.718 218.07 51.4658 217.643 52.233C216.794 53.774 216.035 55.3629 215.371 56.9917C214.982 57.9629 214.623 58.934 214.302 59.9052C214.06 60.6045 213.846 61.3134 213.632 62.0321C213.163 63.7416 212.79 65.4762 212.515 67.2278V67.3735C212.434 68.4038 211.947 69.3596 211.161 70.0308C210.376 70.7019 209.355 71.0334 208.325 70.9522C207.295 70.8711 206.339 70.384 205.668 69.5981C204.997 68.8122 204.666 67.7919 204.747 66.7617C204.731 64.6366 204.841 62.5125 205.077 60.4005C205.145 59.7887 205.232 59.1671 205.329 58.5553C205.543 57.0694 205.834 55.5932 206.174 54.117C206.657 52.038 207.261 49.9887 207.98 47.9793C208.349 47.0081 208.728 45.9593 209.165 44.9492C209.608 43.8923 210.104 42.8583 210.651 41.8512L210.748 41.6764C211.063 40.9248 211.532 40.2475 212.124 39.6883C212.717 39.1292 213.42 38.7005 214.189 38.4301C214.958 38.1597 215.775 38.0535 216.587 38.1184C217.399 38.1834 218.189 38.4179 218.904 38.807C219.62 39.196 220.247 39.7309 220.743 40.3771C221.24 41.0233 221.595 41.7665 221.786 42.5585C221.978 43.3506 222.001 44.174 221.854 44.9756C221.707 45.7771 221.394 46.539 220.935 47.212L220.886 47.2218Z" fill="#FCD8AE"/>
<path d="M297.856 41.1325C297.753 41.1317 297.652 41.0984 297.568 41.0375C297.485 40.9765 297.422 40.8909 297.39 40.7926C292.952 26.0212 285.047 24.2828 284.969 24.2342C284.844 24.2062 284.735 24.1309 284.665 24.024C284.594 23.9172 284.568 23.7872 284.591 23.6612C284.602 23.5981 284.626 23.538 284.662 23.4844C284.697 23.4309 284.743 23.3851 284.796 23.3497C284.85 23.3143 284.91 23.2901 284.973 23.2786C285.036 23.267 285.101 23.2683 285.164 23.2825C285.504 23.3505 293.7 25.1277 298.322 40.511C298.358 40.6346 298.344 40.7675 298.282 40.8804C298.22 40.9934 298.116 41.0771 297.992 41.1131L297.856 41.1325Z" fill="#331338"/>
<path d="M288.435 48.9204C289.512 46.1916 288.946 43.4109 287.17 42.7095C285.394 42.0082 283.081 43.6518 282.004 46.3806C280.926 49.1094 281.492 51.8901 283.268 52.5914C285.044 53.2928 287.357 51.6492 288.435 48.9204Z" fill="#FF9A75"/>
<path d="M212.758 252.167C212.63 252.155 212.512 252.093 212.429 251.995C212.345 251.898 212.303 251.771 212.312 251.643L219.886 156.536C220.184 153.026 221.782 149.754 224.367 147.361C226.952 144.968 230.338 143.627 233.86 143.6C233.989 143.6 234.113 143.652 234.204 143.743C234.295 143.834 234.346 143.957 234.346 144.086C234.346 144.215 234.295 144.338 234.204 144.429C234.113 144.52 233.989 144.572 233.86 144.572C230.577 144.589 227.419 145.835 225.007 148.063C222.595 150.292 221.105 153.342 220.828 156.614L213.254 251.721C213.244 251.844 213.187 251.959 213.095 252.042C213.003 252.125 212.882 252.17 212.758 252.167Z" fill="#331338"/>
<path d="M213.467 115.971C213.345 117.339 213.137 118.698 212.846 120.04H212.69C211.301 119.922 209.932 119.622 208.621 119.146C207.714 118.853 206.889 118.351 206.213 117.68C204.271 115.407 204.445 111.251 200.299 107.473C196.987 104.443 193.501 98.7325 195.793 99.3637C195.793 99.3637 199.959 101.84 205.688 105.395C207.369 106.444 208.874 107.531 210.262 108.551C211.418 109.415 212.506 110.231 213.554 110.93C213.653 112.61 213.623 114.295 213.467 115.971Z" fill="#FF9A75"/>
<path d="M266.101 55.4378C265.915 55.4468 265.73 55.3986 265.572 55.2997C265.414 55.2007 265.29 55.0558 265.217 54.8843C264.965 54.2433 264.44 48.9893 264.246 47.3966C264.238 47.2698 264.279 47.1447 264.36 47.0471C264.441 46.9494 264.557 46.8868 264.683 46.8722C264.811 46.8636 264.937 46.9041 265.037 46.9852C265.136 47.0664 265.2 47.1822 265.217 47.3092C265.528 50.4946 265.936 54.1073 266.082 54.5249C266.873 54.2615 267.543 53.7197 267.965 53.0002C268.004 52.8714 268.092 52.7633 268.211 52.6995C268.329 52.6358 268.468 52.6217 268.597 52.6603C268.725 52.6989 268.834 52.7872 268.897 52.9055C268.961 53.0239 268.975 53.1628 268.937 53.2916C268.674 53.8434 268.284 54.3253 267.8 54.6983C267.316 55.0712 266.75 55.3246 266.15 55.4378H266.101Z" fill="#C25638"/>
<path d="M304.605 95.3528H304.557C304.43 95.3382 304.313 95.2738 304.233 95.1738C304.153 95.0737 304.116 94.9461 304.13 94.8187C304.382 92.4005 304.013 90.6135 302.984 89.3413C301.139 87.0591 297.39 86.6706 293.409 86.253C289.922 85.8839 286.319 85.5149 283.697 83.8056C273.015 76.9395 285.416 53.2527 285.95 52.2427C285.98 52.1868 286.02 52.1374 286.069 52.0973C286.118 52.0571 286.174 52.0272 286.235 52.0091C286.296 51.991 286.359 51.9852 286.422 51.9919C286.485 51.9987 286.546 52.0179 286.601 52.0485C286.658 52.0772 286.708 52.1169 286.749 52.1654C286.79 52.2139 286.821 52.2701 286.84 52.3308C286.859 52.3914 286.866 52.4553 286.86 52.5185C286.854 52.5818 286.835 52.6432 286.805 52.6992C286.679 52.9419 274.278 76.5996 284.222 82.9899C286.669 84.5729 290.155 84.9322 293.535 85.2818C297.711 85.7286 301.663 86.1364 303.751 88.7295C304.955 90.2153 305.402 92.2354 305.11 94.9255C305.096 95.0474 305.036 95.1592 304.942 95.2385C304.848 95.3177 304.728 95.3586 304.605 95.3528Z" fill="#331338"/>
<path d="M293.991 122.73C293.368 122.734 292.746 122.701 292.127 122.633C291.999 122.614 291.883 122.545 291.805 122.441C291.727 122.338 291.693 122.208 291.709 122.079C291.731 121.953 291.8 121.84 291.904 121.764C292.007 121.688 292.136 121.655 292.263 121.671C292.855 121.759 306.917 123.614 312.928 108.91C312.977 108.792 313.071 108.698 313.19 108.649C313.308 108.6 313.441 108.6 313.559 108.648C313.618 108.672 313.672 108.707 313.718 108.751C313.763 108.796 313.799 108.849 313.824 108.908C313.848 108.967 313.861 109.03 313.86 109.094C313.86 109.158 313.847 109.221 313.821 109.279C312.315 113.298 309.598 116.75 306.046 119.16C302.494 121.569 298.282 122.816 293.991 122.73Z" fill="#331338"/>
<path d="M300.148 129.742C294.564 129.742 290.913 125.323 290.864 125.265C290.783 125.164 290.745 125.036 290.759 124.907C290.772 124.779 290.837 124.661 290.937 124.58C291.037 124.499 291.166 124.461 291.294 124.475C291.423 124.488 291.541 124.552 291.622 124.653C291.855 124.944 297.448 131.626 305.353 127.372C305.41 127.342 305.472 127.323 305.536 127.317C305.6 127.311 305.665 127.317 305.726 127.336C305.787 127.355 305.844 127.386 305.894 127.427C305.943 127.469 305.984 127.519 306.013 127.576C306.072 127.691 306.084 127.824 306.046 127.948C306.008 128.071 305.923 128.175 305.81 128.237C304.077 129.201 302.131 129.719 300.148 129.742Z" fill="#331338"/>
<path d="M289.213 45.6096H289.126C289 45.5882 288.888 45.5181 288.813 45.4145C288.739 45.3109 288.708 45.1821 288.728 45.0561C289.087 42.9389 288.825 41.521 287.902 40.5693C286.106 38.6949 281.532 38.3453 273.093 39.433C257.662 41.3753 254.283 30.6245 254.244 30.508C254.208 30.3843 254.222 30.2514 254.284 30.1385C254.346 30.0256 254.45 29.9419 254.574 29.9058C254.698 29.8724 254.829 29.8881 254.942 29.9496C255.054 30.0112 255.138 30.1138 255.176 30.236C255.302 30.6439 258.39 40.3362 272.967 38.4618C281.862 37.3256 286.562 37.7529 288.601 39.8895C289.747 41.084 290.097 42.8029 289.689 45.2114C289.671 45.3238 289.612 45.4257 289.525 45.4988C289.438 45.5718 289.327 45.6112 289.213 45.6096Z" fill="#331338"/>
<path d="M129.408 252.206C129.284 252.204 129.166 252.154 129.078 252.067C128.989 251.981 128.937 251.864 128.932 251.74L123.64 153.788C123.531 152.288 123.088 150.831 122.342 149.525C121.595 148.219 120.565 147.097 119.328 146.242C117.8 145.267 116.071 144.653 114.271 144.444C112.471 144.235 110.647 144.438 108.937 145.038C108.814 145.075 108.68 145.062 108.566 145.002C108.452 144.942 108.366 144.84 108.325 144.717C108.289 144.594 108.304 144.461 108.366 144.348C108.428 144.235 108.532 144.151 108.656 144.115C112.802 142.862 116.784 143.329 119.872 145.436C121.234 146.374 122.367 147.606 123.187 149.042C124.008 150.478 124.494 152.08 124.611 153.73L129.894 251.691C129.898 251.755 129.889 251.819 129.868 251.88C129.847 251.94 129.815 251.996 129.772 252.044C129.73 252.091 129.678 252.13 129.621 252.158C129.563 252.186 129.501 252.202 129.437 252.206H129.408Z" fill="#331338"/>
<path d="M216.089 109.037C215.981 109.037 215.875 109.001 215.79 108.935C215.704 108.869 215.643 108.776 215.616 108.671C215.589 108.566 215.598 108.455 215.642 108.356C215.685 108.257 215.761 108.175 215.856 108.124C216.545 107.732 217.113 107.157 217.497 106.463C217.826 105.925 218.266 105.462 218.786 105.106C219.307 104.749 219.897 104.507 220.517 104.394C221.396 104.191 222.305 104.165 223.194 104.316C224.083 104.468 224.932 104.795 225.693 105.278C227.441 106.482 230.393 107.386 231.452 107.036C231.574 106.999 231.706 107.01 231.82 107.068C231.934 107.126 232.022 107.226 232.064 107.347C232.085 107.407 232.094 107.47 232.09 107.534C232.087 107.597 232.07 107.659 232.042 107.716C232.014 107.773 231.975 107.824 231.927 107.866C231.879 107.907 231.823 107.939 231.763 107.959C230.151 108.502 226.771 107.201 225.14 106.075C223.822 105.264 222.241 104.999 220.731 105.336C220.242 105.423 219.776 105.61 219.363 105.886C218.95 106.161 218.599 106.52 218.332 106.939C217.865 107.796 217.165 108.503 216.312 108.978C216.244 109.017 216.167 109.037 216.089 109.037Z" fill="#331338"/>
<path d="M228.471 107.483H228.073C228.009 107.476 227.947 107.456 227.891 107.425C227.835 107.394 227.785 107.353 227.745 107.303C227.664 107.202 227.626 107.072 227.64 106.944C227.655 106.815 227.719 106.697 227.82 106.616C227.921 106.535 228.051 106.497 228.179 106.512C229.191 106.51 230.173 106.168 230.966 105.54C232.909 104.433 235.822 102.753 242.348 103.248C242.477 103.257 242.596 103.317 242.681 103.415C242.766 103.512 242.808 103.639 242.799 103.768C242.79 103.897 242.731 104.017 242.633 104.101C242.536 104.186 242.409 104.229 242.28 104.22C236.084 103.744 233.404 105.268 231.452 106.385C230.574 107.01 229.544 107.389 228.471 107.483Z" fill="#331338"/>
<path d="M244.047 51.1356C242.639 53.4664 238.289 53.7286 236.201 58.1085C235.804 58.9641 235.451 59.8393 235.142 60.7307C234.861 61.5076 234.608 62.2846 234.375 63.0615C233.858 64.7515 233.456 66.4743 233.171 68.2184L233.122 68.4515C232.883 69.3278 232.345 70.0927 231.601 70.6132C230.857 71.1338 229.954 71.3772 229.049 71.301C228.144 71.2248 227.294 70.8339 226.647 70.1962C226.001 69.5585 225.598 68.7144 225.509 67.8105C225.452 65.6739 225.536 63.536 225.761 61.4105C225.807 60.9249 225.865 60.4394 225.936 59.9538C226.15 58.3222 226.441 56.7004 226.81 55.0979C227.283 53.014 227.873 50.9584 228.578 48.9407C228.927 47.9696 229.296 46.9207 229.704 45.9204C229.908 45.4251 230.122 44.9492 230.335 44.4345L230.656 43.7061L230.792 43.3857C230.792 43.3177 230.86 43.2497 230.792 43.3857C232.151 40.4722 235.375 39.8312 238.561 40.375C245.62 41.6278 245.514 48.7174 244.047 51.1356Z" fill="#FCD8AE"/>
<path d="M226.363 58.7592H226.305C226.178 58.7446 226.061 58.6802 225.981 58.5802C225.901 58.4801 225.864 58.3525 225.878 58.2251C226.791 49.1641 231.704 44.5122 234.967 41.4336C236.618 39.8797 237.881 38.6464 237.774 37.6363C237.757 37.5078 237.792 37.3778 237.87 37.2743C237.948 37.1708 238.063 37.102 238.191 37.0828C238.32 37.0686 238.448 37.1039 238.551 37.1815C238.654 37.2592 238.723 37.3733 238.745 37.5004C238.939 39.0154 237.55 40.3265 235.637 42.1328C232.481 45.1143 227.723 49.6205 226.839 58.3222C226.829 58.4416 226.775 58.5529 226.687 58.6339C226.599 58.7149 226.483 58.7596 226.363 58.7592Z" fill="#AD5F1F"/>
<path d="M226.703 41.725C226.703 43.4148 224.13 45.7942 221.848 45.8136C219.566 45.833 216.516 44.0266 216.497 42.3465C216.478 40.6664 218.439 39.0057 221.353 38.7823C224.266 38.559 226.684 40.0254 226.703 41.725Z" fill="#D48648"/>
<path d="M219.595 49.5428C216.225 49.2709 210.214 47.8919 207.835 41.7055C206.028 36.9857 208.806 32.7319 209.777 31.1198C209.887 30.9643 209.988 30.8022 210.078 30.6342C210.091 30.5732 210.115 30.5154 210.151 30.4641C210.186 30.4128 210.231 30.3692 210.284 30.3357C210.336 30.3022 210.395 30.2795 210.456 30.2691C210.518 30.2587 210.581 30.2606 210.641 30.2749C210.769 30.3051 210.88 30.3838 210.951 30.4944C211.021 30.6049 211.046 30.7387 211.02 30.8673C210.921 31.1508 210.776 31.4164 210.593 31.6539C209.622 33.1398 207.077 37.1022 208.718 41.3656C210.894 47.0469 216.487 48.3192 219.643 48.5717C219.77 48.5863 219.887 48.6486 219.97 48.7459C220.053 48.8432 220.096 48.9684 220.09 49.0961C220.08 49.2197 220.023 49.3349 219.931 49.418C219.839 49.501 219.719 49.5457 219.595 49.5428Z" fill="#AD5F1F"/>
<path d="M235.142 60.7307C234.861 61.5076 234.608 62.2846 234.375 63.0615C233.858 64.7515 233.456 66.4743 233.171 68.2184L233.122 68.4515C232.884 69.3278 232.345 70.0927 231.601 70.6132C230.857 71.1338 229.954 71.3772 229.049 71.301C228.144 71.2248 227.294 70.8339 226.647 70.1962C226.001 69.5585 225.598 68.7144 225.509 67.8105C225.452 65.6739 225.536 63.536 225.761 61.4105C225.807 60.9249 225.865 60.4393 225.936 59.9538C226.902 59.8234 227.875 59.7585 228.849 59.7595C230.985 59.7518 233.108 60.0795 235.142 60.7307Z" fill="#D48648"/>
<path d="M313.744 84.1747C307.732 86.7094 300.789 83.9416 296.487 79.4937C295.827 78.7986 295.205 78.0692 294.623 77.3085C293.884 76.3297 293.21 75.3046 292.603 74.2396C292.366 73.8121 292.161 73.3673 291.991 72.9091C291.807 72.4242 291.654 71.9279 291.534 71.4233V71.3747C291.538 71.3424 291.538 71.3098 291.534 71.2776C291.534 71.1222 291.466 70.9571 291.437 70.7823V70.8503C290.714 68.1555 290.784 65.309 291.641 62.6536C291.962 61.5318 292.395 60.4451 292.933 59.4099L293.438 61.0415C293.865 59.9123 294.44 58.8445 295.147 57.8657C296.24 58.51 297.243 59.2971 298.128 60.2063C298.41 59.6333 298.721 59.2351 298.779 59.2351C299.944 60.2063 301.935 60.6627 304.538 64.2366C305.215 65.0408 305.823 65.9019 306.353 66.8102C306.635 67.2861 307.043 68.4709 307.596 69.3255C308.033 69.9956 308.568 70.4715 309.179 70.2287C310.529 69.6946 309.179 66.2761 308.878 65.3729C308.043 62.7799 304.275 56.9431 303.197 54.4278L304.168 51.2327C303.197 49.0475 306.587 52.874 308.772 51.9416C310.539 51.1841 312.976 51.1647 314.171 52.5438C316.689 55.5666 318.61 59.0402 319.832 62.7799C320.627 64.8103 321.188 66.925 321.503 69.0827C322.144 75.1525 319.59 81.6982 313.744 84.1747Z" fill="#FCD8AE"/>
<path d="M291.418 71.0251V70.86C291.421 70.9149 291.421 70.9701 291.418 71.0251Z" fill="#FCD8AE"/>
<path d="M303.43 62.6147C302.012 61.2365 300.411 60.0601 298.672 59.1185C298.386 59.4165 298.164 59.7702 298.021 60.1577C297.144 59.2584 296.185 58.4423 295.157 57.7201C294.366 58.5939 293.747 59.6086 293.331 60.7113L292.865 59.4099C292.865 59.4099 291.748 60.3228 290.864 63.1877C290.042 66.2672 290.264 69.5323 291.495 72.4721C292.106 74.0187 292.923 75.4757 293.923 76.8035C294.953 78.1729 297.633 79.144 299.225 78.2991C301.061 77.3279 302.323 74.2105 302.799 71.7437C305.275 72.1808 307.13 71.2679 307.519 69.3547C306.574 66.8798 305.189 64.5963 303.43 62.6147Z" fill="#D48648"/>
<path d="M218.75 41.6084C218.635 41.6076 218.525 41.5662 218.437 41.4915C218.35 41.4169 218.293 41.3138 218.274 41.2005C218.263 41.1372 218.265 41.0723 218.28 41.0098C218.294 40.9473 218.322 40.8884 218.36 40.8366C218.398 40.7849 218.446 40.7414 218.502 40.7088C218.557 40.6762 218.618 40.6552 218.682 40.647C219.43 40.5856 220.126 40.2377 220.624 39.6758C220.798 39.4368 220.902 39.1545 220.925 38.86C220.925 38.6269 220.925 38.4618 220.925 38.4424C220.925 38.3136 220.976 38.1901 221.067 38.099C221.159 38.008 221.282 37.9568 221.411 37.9568C221.54 37.9568 221.663 38.008 221.754 38.099C221.845 38.1901 221.896 38.3136 221.896 38.4424C221.908 38.5943 221.908 38.7469 221.896 38.8989C221.912 39.3693 222.099 39.818 222.421 40.1614C222.629 40.317 222.871 40.4233 223.126 40.4721C223.382 40.5208 223.646 40.5109 223.897 40.443C224.024 40.4261 224.153 40.4592 224.256 40.5352C224.359 40.6113 224.429 40.7245 224.45 40.8509C224.47 40.977 224.439 41.1057 224.365 41.2093C224.29 41.3129 224.178 41.383 224.052 41.4045C223.655 41.5025 223.241 41.5052 222.842 41.4124C222.444 41.3196 222.073 41.1338 221.76 40.8703C221.595 40.7257 221.454 40.5552 221.343 40.3653C220.695 41.1115 219.783 41.5778 218.799 41.6667L218.75 41.6084Z" fill="#AD5F1F"/>
<path d="M214.302 59.9149C214.06 60.6142 213.846 61.3231 213.632 62.0418C213.163 63.7513 212.79 65.486 212.515 67.2375V67.3832C212.434 68.4135 211.947 69.3693 211.161 70.0405C210.376 70.7116 209.355 71.0431 208.325 70.962C207.295 70.8808 206.339 70.3937 205.668 69.6079C204.997 68.822 204.666 67.8016 204.747 66.7714C204.731 64.6463 204.841 62.5222 205.077 60.4102C205.145 59.7984 205.232 59.1768 205.329 58.565C205.834 58.565 206.349 58.5164 206.873 58.5164C209.417 58.4994 211.939 58.9743 214.302 59.9149Z" fill="#D48648"/>
<path d="M222.712 38.4133C222.712 38.9086 222.168 39.3844 221.469 39.3844C220.77 39.3844 220.168 39.0348 220.148 38.5298C220.129 38.0248 220.683 37.5586 221.391 37.5586C222.1 37.5586 222.683 37.918 222.712 38.4133Z" fill="#331338"/>
<path d="M207.009 70.86C206.913 70.8622 206.818 70.8344 206.738 70.7805C206.658 70.7266 206.597 70.6492 206.563 70.5589C206.112 69.4364 205.897 68.2331 205.931 67.0239C205.931 66.8951 205.982 66.7716 206.074 66.6805C206.165 66.5894 206.288 66.5383 206.417 66.5383C206.544 66.5408 206.665 66.5931 206.754 66.6839C206.843 66.7747 206.893 66.8967 206.893 67.0239C206.856 68.103 207.044 69.178 207.446 70.1802C207.495 70.3001 207.495 70.4343 207.446 70.5541C207.397 70.6739 207.303 70.7697 207.184 70.8211C207.129 70.8466 207.07 70.8598 207.009 70.86Z" fill="#AD5F1F"/>
<path d="M211.816 43.8033C211.723 43.8021 211.632 43.7752 211.553 43.7255C211.474 43.6758 211.411 43.6052 211.37 43.5216C211.317 43.4044 211.313 43.2711 211.359 43.151C211.404 43.0308 211.495 42.9336 211.612 42.8806L215.264 41.1811C215.38 41.1279 215.512 41.1225 215.632 41.1662C215.752 41.2098 215.85 41.2989 215.905 41.4142C215.933 41.4721 215.949 41.535 215.952 41.5993C215.955 41.6635 215.946 41.7277 215.924 41.7882C215.902 41.8488 215.869 41.9044 215.826 41.9519C215.782 41.9994 215.73 42.0378 215.672 42.0649L212.02 43.7547C211.956 43.7844 211.887 43.801 211.816 43.8033Z" fill="#AD5F1F"/>
<path d="M215.409 40.3265L210.874 39.9671C210.81 39.9622 210.748 39.9448 210.691 39.9157C210.634 39.8867 210.583 39.8466 210.542 39.7979C210.5 39.7491 210.469 39.6927 210.449 39.6317C210.43 39.5708 210.422 39.5065 210.427 39.4427C210.442 39.3157 210.504 39.199 210.602 39.116C210.699 39.0331 210.824 38.9902 210.952 38.996L215.487 39.3553C215.616 39.3553 215.739 39.4065 215.83 39.4975C215.921 39.5886 215.972 39.7121 215.972 39.8409C215.972 39.9697 215.921 40.0932 215.83 40.1842C215.739 40.2753 215.616 40.3265 215.487 40.3265H215.409Z" fill="#AD5F1F"/>
<path d="M228.14 39.433C228.028 39.433 227.92 39.3944 227.833 39.3236C227.747 39.2528 227.687 39.1542 227.665 39.0445C227.642 38.9172 227.669 38.786 227.742 38.6789C227.815 38.5718 227.926 38.4974 228.053 38.4715L232.404 37.6072C232.528 37.5843 232.657 37.611 232.762 37.6818C232.868 37.7526 232.941 37.8618 232.967 37.986C232.981 38.0485 232.982 38.1133 232.971 38.1765C232.959 38.2396 232.935 38.2997 232.9 38.3532C232.864 38.4067 232.818 38.4526 232.765 38.4879C232.711 38.5233 232.651 38.5474 232.588 38.5589L228.238 39.4233L228.14 39.433Z" fill="#AD5F1F"/>
<path d="M231.53 42.1911C231.478 42.2004 231.426 42.2004 231.374 42.1911L228.034 41.0063C227.913 40.9623 227.813 40.8727 227.757 40.7566C227.701 40.6406 227.692 40.5072 227.733 40.3847C227.777 40.2635 227.866 40.1642 227.982 40.108C228.098 40.0518 228.232 40.0431 228.354 40.0837L231.695 41.2394C231.816 41.2834 231.915 41.3729 231.972 41.489C232.028 41.6051 232.036 41.7385 231.996 41.8609C231.962 41.9574 231.899 42.0409 231.815 42.1C231.732 42.1591 231.632 42.191 231.53 42.1911Z" fill="#AD5F1F"/>
<path d="M209.845 70.86C209.749 70.8595 209.655 70.8306 209.576 70.7771C209.496 70.7235 209.435 70.6476 209.398 70.5589C208.913 69.3241 208.705 67.9983 208.786 66.6742C208.785 66.6101 208.797 66.5463 208.821 66.4871C208.846 66.4278 208.883 66.3745 208.93 66.3305C208.976 66.2865 209.032 66.2528 209.093 66.2318C209.153 66.2107 209.218 66.2026 209.282 66.2081C209.345 66.2094 209.408 66.2232 209.467 66.2487C209.525 66.2743 209.578 66.3112 209.622 66.3572C209.666 66.4031 209.701 66.4574 209.724 66.5168C209.747 66.5762 209.759 66.6396 209.757 66.7034C209.684 67.8777 209.866 69.054 210.292 70.151C210.317 70.2097 210.331 70.2728 210.332 70.3368C210.334 70.4008 210.322 70.4645 210.299 70.524C210.275 70.5836 210.24 70.638 210.196 70.6839C210.151 70.7299 210.098 70.7666 210.039 70.792C209.981 70.8298 209.914 70.8531 209.845 70.86Z" fill="#AD5F1F"/>
<path d="M227.762 71.6952C227.66 71.6959 227.562 71.6643 227.479 71.6049C227.397 71.5455 227.336 71.4615 227.305 71.365C226.935 70.209 226.809 68.9886 226.936 67.7814C226.949 67.656 227.009 67.5403 227.105 67.4587C227.201 67.3772 227.325 67.3362 227.451 67.3443C227.514 67.348 227.576 67.3643 227.633 67.3924C227.69 67.4204 227.741 67.4595 227.783 67.5075C227.824 67.5555 227.856 67.6113 227.876 67.6717C227.896 67.732 227.903 67.7958 227.898 67.8591C227.788 68.9323 227.901 70.0166 228.228 71.0445C228.249 71.1051 228.258 71.1693 228.255 71.2334C228.251 71.2975 228.235 71.3603 228.207 71.4181C228.179 71.4759 228.14 71.5276 228.092 71.5702C228.044 71.6127 227.988 71.6453 227.927 71.6661C227.874 71.6851 227.818 71.6949 227.762 71.6952Z" fill="#AD5F1F"/>
<path d="M230.597 71.8894C230.498 71.888 230.401 71.8567 230.32 71.7995C230.238 71.7424 230.176 71.662 230.141 71.5689C229.749 70.3137 229.633 68.9885 229.801 67.6843C229.808 67.6205 229.826 67.5586 229.857 67.5021C229.887 67.4457 229.928 67.3957 229.978 67.3551C230.027 67.3145 230.084 67.2841 230.146 67.2656C230.207 67.2471 230.271 67.2409 230.335 67.2472C230.399 67.2536 230.461 67.2725 230.517 67.3028C230.574 67.3331 230.624 67.3742 230.664 67.4238C230.705 67.4734 230.735 67.5305 230.754 67.5919C230.772 67.6532 230.779 67.7176 230.772 67.7814C230.619 68.9484 230.722 70.1349 231.073 71.2582C231.114 71.3806 231.105 71.514 231.049 71.6301C230.993 71.7461 230.893 71.8357 230.772 71.8797L230.597 71.8894Z" fill="#AD5F1F"/>
<path d="M298.157 65.1981C298.059 65.1974 297.963 65.1675 297.882 65.1122C297.8 65.0568 297.738 64.9786 297.701 64.8873C296.205 60.8667 298.254 58.8564 298.342 58.7689C298.436 58.691 298.557 58.6516 298.679 58.6587C298.802 58.6659 298.917 58.719 299.001 58.8075C299.086 58.896 299.134 59.0133 299.136 59.1358C299.138 59.2583 299.094 59.3771 299.012 59.4682C298.934 59.5459 297.351 61.1677 298.614 64.5474C298.657 64.6684 298.651 64.8019 298.597 64.9185C298.542 65.035 298.443 65.1251 298.322 65.1689C298.27 65.1888 298.214 65.1986 298.157 65.1981Z" fill="#331338"/>
<path d="M294.069 63.6636C294.005 63.6612 293.942 63.6458 293.883 63.6184C293.825 63.5909 293.773 63.5519 293.731 63.5038C293.688 63.4557 293.655 63.3995 293.635 63.3385C293.615 63.2775 293.607 63.213 293.612 63.1489C293.542 61.9155 293.154 60.7213 292.486 59.6818C292.451 59.6283 292.427 59.5683 292.415 59.5054C292.403 59.4425 292.403 59.3779 292.417 59.3152C292.43 59.2525 292.455 59.193 292.491 59.1401C292.527 59.0872 292.573 59.0419 292.627 59.0069C292.68 58.9718 292.74 58.9476 292.803 58.9357C292.866 58.9238 292.931 58.9244 292.993 58.9375C293.056 58.9506 293.115 58.9758 293.168 59.0119C293.221 59.048 293.267 59.0941 293.302 59.1477C294.087 60.3607 294.53 61.7632 294.584 63.2072C294.58 63.271 294.564 63.3334 294.536 63.3909C294.508 63.4484 294.469 63.4999 294.421 63.5423C294.373 63.5847 294.317 63.6172 294.257 63.6381C294.197 63.6589 294.133 63.6676 294.069 63.6636Z" fill="#331338"/>
<path d="M265.518 118.302C265.314 118.943 264.975 121.089 264.771 121.73C261.974 130.47 256.205 133.86 256.205 133.86C253.389 132.888 253.603 132.568 249.223 131.393C249.563 131.471 245.805 119.438 244.766 113.718C244.766 113.718 249.456 125.964 255.39 127.227C259.245 128.042 263.605 124.362 265.518 118.302Z" fill="#331338"/>
<path d="M226.354 27.3031C226.237 27.3019 226.126 27.2592 226.038 27.1825C225.951 27.1059 225.894 27.0005 225.878 26.8855C225.703 25.4967 226.849 22.8455 226.956 22.5444C227.009 22.4274 227.105 22.3356 227.225 22.2885C227.345 22.2413 227.478 22.2426 227.597 22.2919C227.655 22.3172 227.709 22.354 227.753 22.3999C227.798 22.4459 227.833 22.5003 227.856 22.5598C227.88 22.6194 227.891 22.683 227.89 22.7471C227.889 22.8111 227.875 22.8742 227.849 22.9329C227.298 24.1396 226.969 25.4358 226.878 26.7593C226.894 26.8867 226.86 27.0155 226.782 27.1175C226.703 27.2194 226.588 27.2862 226.46 27.3031H226.354Z" fill="#AD5F1F"/>
<path d="M211.35 32.0133C211.244 32.0127 211.141 31.9772 211.056 31.9123C210.972 31.8474 210.912 31.7566 210.884 31.6539C210.469 29.9804 210.489 28.2286 210.942 26.565C210.976 26.5107 211.02 26.4637 211.072 26.4264C211.124 26.3892 211.183 26.3627 211.245 26.3482C211.307 26.3338 211.372 26.3318 211.435 26.3423C211.498 26.3529 211.558 26.3757 211.612 26.4096C211.714 26.4723 211.789 26.571 211.821 26.6862C211.854 26.8014 211.841 26.9246 211.787 27.0312C211.481 28.4718 211.481 29.9608 211.787 31.4014C211.805 31.4627 211.81 31.5268 211.802 31.59C211.794 31.6532 211.774 31.7143 211.742 31.7695C211.711 31.8248 211.668 31.8731 211.617 31.9116C211.567 31.9502 211.509 31.9781 211.447 31.9939L211.35 32.0133Z" fill="#AD5F1F"/>
<path d="M58.9542 240.562C58.873 240.561 58.7932 240.541 58.7212 240.504C57.0703 239.61 56.3322 238.561 56.5265 237.347C57.0217 234.366 63.2368 232.132 63.6544 232.064C63.7176 232.053 63.7823 232.054 63.8449 232.068C63.9075 232.082 63.9667 232.109 64.019 232.146C64.0714 232.183 64.1159 232.23 64.15 232.284C64.1841 232.338 64.2071 232.399 64.2177 232.462C64.2373 232.588 64.2066 232.717 64.1321 232.821C64.0576 232.924 63.9453 232.994 63.8195 233.016C63.0717 233.142 57.8375 235.376 57.4879 237.512C57.3616 238.26 57.9346 238.979 59.1873 239.649C59.299 239.712 59.3816 239.817 59.4179 239.94C59.4541 240.063 59.4411 240.196 59.3815 240.309C59.3404 240.387 59.2788 240.451 59.2034 240.496C59.128 240.54 59.0418 240.563 58.9542 240.562Z" fill="#C25638"/>
</svg>
