<svg width="12" height="17" viewBox="0 0 12 17" fill="none" xmlns="http://www.w3.org/2000/svg">
<path d="M6.00004 0.5C2.80488 0.5 0.205444 3.09944 0.205444 6.29456C0.205444 10.2598 5.39104 16.081 5.61182 16.3269C5.81919 16.5579 6.18126 16.5575 6.38826 16.3269C6.60904 16.081 11.7946 10.2598 11.7946 6.29456C11.7946 3.09944 9.19516 0.5 6.00004 0.5ZM6.00004 9.20997C4.39248 9.20997 3.08466 7.90212 3.08466 6.29456C3.08466 4.687 4.39251 3.37919 6.00004 3.37919C7.60757 3.37919 8.91538 4.68703 8.91538 6.29459C8.91538 7.90216 7.60757 9.20997 6.00004 9.20997Z" fill="#FFB334"/>
</svg>
